<?xml version="1.0" encoding="UTF-8"?>
<svg version="1.1" xmlns="http://www.w3.org/2000/svg" width="512" height="512">
<path d="M0 0 C3.2530199 0.76933618 4.77585332 2.09136929 7.09765625 4.49609375 C8.33466505 7.18162063 8.99686778 9.93414675 9.66015625 12.80859375 C9.96530151 14.05298218 9.96530151 14.05298218 10.27661133 15.32250977 C12.7225368 25.62059081 14.54898447 36.02908038 16.09765625 46.49609375 C16.2177002 47.29499023 16.33774414 48.09388672 16.46142578 48.91699219 C21.92841766 87.12890266 20.36297744 133.48529414 -2.70703125 166.04296875 C-19.10858132 187.25300538 -40.01362008 198.59016821 -66.3359375 203.08203125 C-70.41554618 203.55567695 -74.42364824 203.75421616 -78.52734375 203.80859375 C-79.2646875 203.83759766 -80.00203125 203.86660156 -80.76171875 203.89648438 C-84.45241366 203.93947634 -86.67311131 203.63339128 -89.86328125 201.72265625 C-92.49038044 198.85398472 -92.78814604 197.21600376 -93.046875 193.4609375 C-92.75604489 189.50722009 -90.59565461 187.18940461 -87.90234375 184.49609375 C-85.58064444 184.1229635 -83.24280042 183.84863815 -80.90234375 183.62109375 C-62.89968041 181.62285574 -46.49756165 177.73126149 -31.90234375 166.49609375 C-30.87109375 165.75359375 -29.83984375 165.01109375 -28.77734375 164.24609375 C-9.55720653 145.86161467 -3.27730985 117.54417443 -2.69921875 91.87109375 C-2.47951804 70.95983798 -3.12359038 49.74222258 -8.90234375 29.49609375 C-9.8253125 30.00398438 -10.74828125 30.511875 -11.69921875 31.03515625 C-30.235889 40.95237168 -49.87641807 44.72031266 -70.375 48.51757812 C-89.39012764 52.0911844 -108.97300389 56.92295944 -121.03125 73.40625 C-134.6372721 94.65436421 -139.75041632 116.75583626 -134.42480469 141.41308594 C-133.01200527 147.0457984 -131.06998168 153.32845582 -126.90234375 157.49609375 C-126.16371094 156.41972656 -125.42507812 155.34335937 -124.6640625 154.234375 C-118.63960072 145.53248586 -112.41501326 137.25391266 -105.43383789 129.29882812 C-104.26707147 127.92541775 -103.13099876 126.52586851 -102.00952148 125.11523438 C-96.40501171 118.07704234 -90.36999779 111.68442062 -83.98168945 105.36962891 C-82.33284805 103.73917607 -80.69228274 102.10072995 -79.05273438 100.4609375 C-73.50698125 94.93372296 -67.88424382 89.5538461 -61.90234375 84.49609375 C-60.55462891 83.30886719 -60.55462891 83.30886719 -59.1796875 82.09765625 C-50.9516518 75.14709521 -50.9516518 75.14709521 -44.90234375 75.49609375 C-41.6930532 76.64659414 -39.64455541 77.55146072 -37.52734375 80.24609375 C-36.56976833 83.69336526 -36.36399796 85.90712183 -36.90234375 89.49609375 C-39.93041239 94.40918525 -44.37955745 97.94013421 -48.8671875 101.46875 C-54.96779816 106.42273619 -60.50781871 111.83148296 -66.02880859 117.41674805 C-67.65926143 119.06558945 -69.29770755 120.70615476 -70.9375 122.34570312 C-76.46453309 127.89096519 -81.85468154 133.50601437 -86.90234375 139.49609375 C-87.39428223 140.06529541 -87.8862207 140.63449707 -88.39306641 141.22094727 C-112.11185766 168.77764164 -131.9068071 201.49608121 -139.078125 237.4453125 C-141.3717183 248.87182851 -141.3717183 248.87182851 -144.02734375 251.99609375 C-147.78170652 253.95489172 -150.74993763 254.35174107 -154.90234375 253.49609375 C-157.71237835 251.70245464 -159.41174843 250.4772844 -160.90234375 247.49609375 C-162.09257977 225.55111716 -151.89491771 202.64796613 -142.0546875 183.52734375 C-140.747098 180.08771848 -140.65913403 178.91359792 -141.90234375 175.49609375 C-143.10632309 173.16127399 -144.3456205 170.89579325 -145.65234375 168.62109375 C-157.93767081 146.40792401 -161.20823153 119.91818145 -154.37817383 95.4050293 C-150.18924193 81.66036247 -144.05444938 68.62218295 -134.90234375 57.49609375 C-134.26554687 56.696875 -133.62875 55.89765625 -132.97265625 55.07421875 C-118.16933742 37.35779702 -96.1121489 32.07763851 -74.46875 27.80859375 C-73.71332916 27.65934448 -72.95790833 27.51009521 -72.17959595 27.35632324 C-68.38617103 26.60995779 -64.5908326 25.87782364 -60.79003906 25.16992188 C-41.77633472 21.56781194 -24.88392302 16.22500802 -9.90234375 3.49609375 C-6.55870896 0.68513014 -4.44541745 0.13256712 0 0 Z " fill="#000000" transform="translate(323.90234375,133.50390625)"/>
<path d="M0 0 C1.00337402 0.52972412 2.00674805 1.05944824 3.04052734 1.60522461 C16.9055241 9.05657942 29.15304579 18.04001386 40.875 28.5 C41.40641602 28.96970215 41.93783203 29.4394043 42.48535156 29.92333984 C81.95699903 64.89927399 105.41003705 116.15694274 108.875 168.5 C111.2805815 219.35859769 95.96452589 270.40931879 62.875 309.5 C62.16085937 310.34433594 61.44671875 311.18867188 60.7109375 312.05859375 C58.48603763 314.59597955 56.20202381 317.05573682 53.875 319.5 C53.33891113 320.06332031 52.80282227 320.62664062 52.25048828 321.20703125 C24.86364047 349.78984413 -8.81446539 368.65039977 -47.125 378.5 C-48.22457031 378.78488281 -49.32414062 379.06976563 -50.45703125 379.36328125 C-64.07786459 382.45532142 -78.23944973 383.24282209 -92.125 384.5 C-91.10792969 385.78970703 -91.10792969 385.78970703 -90.0703125 387.10546875 C-88.62979631 388.9322235 -87.19252575 390.76124589 -85.76245117 392.59619141 C-83.27557298 395.78535475 -80.76816971 398.94524696 -78.16796875 402.04296875 C-77.70825684 402.60411377 -77.24854492 403.16525879 -76.77490234 403.7434082 C-75.50359789 405.2943625 -74.21512853 406.83119992 -72.92578125 408.3671875 C-70.53088816 412.53357417 -70.64159495 414.74895842 -71.125 419.5 C-72.91863911 422.3100346 -74.14380935 424.00940468 -77.125 425.5 C-82.24961658 425.88676352 -84.97422436 425.50616781 -89.125 422.5 C-90.87701075 420.48874864 -92.47736996 418.50838171 -94.0625 416.375 C-95.02404235 415.11565845 -95.98768575 413.85791909 -96.953125 412.6015625 C-97.46294922 411.93672852 -97.97277344 411.27189453 -98.49804688 410.58691406 C-101.36174929 406.91360551 -104.33977628 403.33520045 -107.3125 399.75 C-112.30726227 393.71184837 -117.29340264 387.67032711 -122.125 381.5 C-122.67027344 380.82453125 -123.21554688 380.1490625 -123.77734375 379.453125 C-125.80739008 376.51102887 -126.00100132 374.03396244 -126.125 370.5 C-121.75755805 361.69534866 -112.43428867 355.85558211 -104.80712891 349.9543457 C-101.38689253 347.30198322 -98.01918776 344.60066019 -94.6953125 341.828125 C-93.94580322 341.20317139 -93.19629395 340.57821777 -92.42407227 339.93432617 C-90.97027549 338.7176184 -89.52003006 337.49665018 -88.07397461 336.27075195 C-78.06058314 327.90007947 -78.06058314 327.90007947 -72.83203125 327.1875 C-69.70201317 327.70379164 -67.33349199 328.36100534 -64.6875 330.125 C-62.56494205 333.35128809 -62.19145549 335.64558158 -62.125 339.5 C-64.18070726 345.01677076 -67.28899298 347.63897282 -71.875 351 C-73.13365988 351.95330932 -74.39148149 352.90772648 -75.6484375 353.86328125 C-76.24881836 354.31525879 -76.84919922 354.76723633 -77.46777344 355.23291016 C-80.46800839 357.52684348 -83.29237701 360.00459404 -86.125 362.5 C-44.90930346 361.09332094 -4.98298108 344.7464544 25.875 317.5 C26.38337402 317.05720703 26.89174805 316.61441406 27.41552734 316.15820312 C46.52457165 299.43993934 61.60101219 278.7545638 71.875 255.5 C72.40351563 254.31792969 72.93203125 253.13585937 73.4765625 251.91796875 C80.15346258 236.1159719 84.46960938 219.46338911 86.875 202.5 C87.00648438 201.60152344 87.13796875 200.70304688 87.2734375 199.77734375 C92.75562997 153.03054039 77.69952336 104.32213218 48.875 67.5 C45.03051991 62.69198197 41.02477318 58.04627703 36.875 53.5 C36.12863281 52.68144531 35.38226563 51.86289063 34.61328125 51.01953125 C28.31195544 44.43866419 21.14135026 38.9600873 13.875 33.5 C13.03066406 32.860625 12.18632812 32.22125 11.31640625 31.5625 C0.68064587 23.81435753 -11.1891432 17.7369116 -23.07275391 12.15063477 C-26.41458724 10.54177707 -28.02038811 9.65691783 -30.125 6.5 C-30.67050398 3.43369345 -30.65790342 0.56823181 -30.125 -2.5 C-21.84227055 -13.54363926 -9.7344392 -5.1675532 0 0 Z " fill="#000000" transform="translate(347.125,75.5)"/>
<path d="M0 0 C8.61345348 1.91237325 14.78044107 13.13698038 19.83984375 19.76416016 C21.71131526 22.18975837 23.6518546 24.55500755 25.6015625 26.91796875 C29.31783195 31.43684449 33.00078794 35.98110396 36.6640625 40.54296875 C37.45768188 41.52704712 37.45768188 41.52704712 38.26733398 42.53100586 C41.97268755 47.15404896 43.25631984 49.3665738 43.58984375 55.3125 C42.4740842 60.993661 36.95997029 64.43051447 32.6015625 67.73046875 C31.33655517 68.70614452 30.07223903 69.68271707 28.80859375 70.66015625 C28.18678223 71.13936523 27.5649707 71.61857422 26.92431641 72.11230469 C24.5126144 73.98680927 22.14810426 75.91525535 19.7890625 77.85546875 C18.92152344 78.56703125 18.05398438 79.27859375 17.16015625 80.01171875 C15.51502505 81.3672897 13.870826 82.7240054 12.23095703 84.0859375 C10.10863971 85.8475252 7.98031415 87.60166492 5.8515625 89.35546875 C5.18141113 89.91540527 4.51125977 90.4753418 3.82080078 91.05224609 C-5.27627492 98.52460086 -5.27627492 98.52460086 -11.4609375 98.41796875 C-15.12700917 97.39961551 -16.51068458 96.4317513 -18.8359375 93.48046875 C-20.43720824 90.27792728 -20.24295357 88.02732311 -19.8359375 84.48046875 C-14.10868409 75.72114001 -4.13656848 69.67496948 4.1640625 63.48046875 C-31.04645185 64.0576903 -66.61741484 76.48742133 -94.8359375 97.48046875 C-95.3918457 97.87991699 -95.94775391 98.27936523 -96.52050781 98.69091797 C-135.0448541 126.43775162 -159.88261125 169.34345371 -168.2578125 215.69921875 C-171.5875687 237.47762416 -171.77831282 261.94711253 -166.8359375 283.48046875 C-166.64257812 284.34317383 -166.44921875 285.20587891 -166.25 286.09472656 C-162.98153033 300.23287545 -158.05621674 313.38758611 -151.8359375 326.48046875 C-151.50867676 327.17221191 -151.18141602 327.86395508 -150.84423828 328.57666016 C-143.72348718 343.35341839 -134.07922394 356.58095936 -122.8359375 368.48046875 C-121.68529723 369.83055333 -120.5392679 371.18458464 -119.3984375 372.54296875 C-106.14527923 387.63768205 -88.49568997 398.95395264 -70.7734375 408.12109375 C-69.91266602 408.56638428 -69.05189453 409.0116748 -68.16503906 409.47045898 C-66.47965334 410.33468981 -64.7890489 411.18883791 -63.09277344 412.03149414 C-55.74028875 415.77000658 -55.74028875 415.77000658 -53.8359375 419.48046875 C-53.16165858 424.03185148 -53.49033456 425.93156996 -55.9609375 429.85546875 C-59.22853434 432.83892674 -60.51244221 433.17771785 -64.8359375 433.48046875 C-103.04234292 424.67592002 -139.79051843 386.58243102 -160.08935547 355.0534668 C-178.13631649 326.13271384 -190.82869181 291.58127861 -191.0390625 257.16015625 C-191.04612213 256.38749924 -191.05318176 255.61484222 -191.06045532 254.81877136 C-191.48955616 193.98743907 -172.00695711 142.27815583 -129.1484375 98.54296875 C-91.62204904 60.98654477 -41.63505078 44.95872144 10.1640625 41.48046875 C9.58289673 40.77869507 9.58289673 40.77869507 8.98999023 40.06274414 C5.26937022 35.56669537 1.56319233 31.05913617 -2.13476562 26.54443359 C-3.50493223 24.88206441 -4.89405411 23.23532834 -6.2890625 21.59375 C-9.82349793 17.33906197 -12.05447993 14.27184315 -11.8359375 8.48046875 C-9.53385188 2.37994185 -6.79221971 -0.2593393 0 0 Z " fill="#000000" transform="translate(240.8359375,10.51953125)"/>
</svg>
