<?xml version="1.0" encoding="UTF-8"?>
<svg version="1.1" xmlns="http://www.w3.org/2000/svg" width="512" height="512">
<path d="M0 0 C3.7257436 2.13682354 6.44466981 4.73416037 9.4375 7.8125 C11.87560155 8.96724612 11.87560155 8.96724612 14.4375 8.8125 C17.02182823 7.62510595 19.10420976 6.06772837 21.35546875 4.34375 C22.04253906 3.8178125 22.72960937 3.291875 23.4375 2.75 C24.076875 2.24339844 24.71625 1.73679688 25.375 1.21484375 C31.88162511 -3.2091684 38.83078679 -2.86020253 46.4375 -2.1875 C54.2526957 -0.21497457 59.17272047 6.14199525 63.25 12.75 C63.641875 13.430625 64.03375 14.11125 64.4375 14.8125 C67.31686812 16.25218406 69.22757619 16.115323 72.4375 15.8125 C74.89197417 14.64622717 77.11196036 13.23366311 79.4375 11.8125 C86.28327252 9.58265294 94.17965394 10.01498962 100.73046875 12.91015625 C107.0158484 16.23263382 111.00631107 21.5189332 113.2421875 28.2265625 C113.47164063 29.01804687 113.70109375 29.80953125 113.9375 30.625 C114.89185629 33.71199604 115.29332029 34.68001054 117.75 36.9375 C121.07786768 38.0209918 123.00312005 37.41711539 126.4375 36.8125 C142.02622323 35.70935369 142.02622323 35.70935369 148.4375 40.8125 C155.50947579 47.15437303 158.22940558 53.77074893 158.875 63.125 C158.90400391 64.32576172 158.90400391 64.32576172 158.93359375 65.55078125 C159.63876429 68.71584901 160.86153604 69.88269535 163.4375 71.8125 C166.17086996 72.36169604 166.17086996 72.36169604 169.125 72.3125 C177.64767166 72.80956955 182.98748746 74.90889596 188.875 81.1875 C194.54366976 88.12964825 194.92165895 94.08553496 194.4375 102.8125 C194.17683309 104.43916175 193.90681256 106.06436804 193.625 107.6875 C193.23524657 111.05137189 193.2976906 111.58780633 195.1875 114.625 C198.93542004 117.14763849 202.59741028 118.4187228 206.8515625 119.8671875 C213.02730425 122.12478494 215.41925085 126.04459652 218.421875 131.59375 C220.98939974 137.20280404 221.58662758 143.44869017 219.578125 149.328125 C218.5970314 151.53203092 217.561045 153.67821573 216.4375 155.8125 C214.89163124 158.90423752 215.14390479 161.40679552 215.4375 164.8125 C217.44353676 167.51293411 219.53848391 168.87695782 222.375 170.6875 C227.74046533 174.41047594 231.88721194 179.37284191 233.4375 185.8125 C234.37315328 193.98235061 233.01047711 199.52447909 229.4375 206.8125 C230.2845752 206.79155273 231.13165039 206.77060547 232.00439453 206.74902344 C235.16890393 206.68055945 238.33303391 206.63056013 241.49804688 206.59277344 C242.86373368 206.57274681 244.22933569 206.54551668 245.59472656 206.51074219 C247.56537102 206.46183568 249.53665983 206.44158653 251.5078125 206.421875 C252.69133301 206.40092773 253.87485352 206.37998047 255.09423828 206.35839844 C260.29231858 207.06443242 263.34477657 209.57211124 266.75 213.4375 C270.53590798 218.76581493 270.3848674 224.46793808 269.4375 230.8125 C267.64781479 237.93580891 264.92980462 244.81147101 262.375 251.6875 C261.35547444 254.44902674 260.34253646 257.21220862 259.34828186 259.98294067 C258.7335882 261.69473852 258.10448765 263.40145535 257.45872498 265.10177612 C254.49686197 273.32460447 256.44767923 279.43243352 259.37890625 287.3515625 C259.96891952 289.00100879 260.55808517 290.65075849 261.14648438 292.30078125 C262.06803711 294.86431563 262.99544454 297.42515059 263.93823242 299.98095703 C271.06374103 319.37390041 271.06374103 319.37390041 269.4375 329.8125 C266.90445856 335.16003193 263.19429249 338.73107881 257.6602478 340.90194702 C254.3739846 341.8304456 251.65518506 342.08822551 248.24853516 342.13134766 C246.44734726 342.16115219 246.44734726 342.16115219 244.60977173 342.19155884 C243.32831268 342.20311005 242.04685364 342.21466125 240.7265625 342.2265625 C239.38991118 342.24529211 238.05327145 342.26486684 236.71664429 342.2852478 C233.2150967 342.33638601 229.71351086 342.37610901 226.21179199 342.41339111 C222.63198526 342.45354627 219.05233515 342.50458583 215.47265625 342.5546875 C208.46105219 342.65122954 201.44934738 342.73570317 194.4375 342.8125 C194.14854858 343.62328003 194.14854858 343.62328003 193.85375977 344.45043945 C193.46401978 345.52104614 193.46401978 345.52104614 193.06640625 346.61328125 C192.81189697 347.31880127 192.5573877 348.02432129 192.29516602 348.7512207 C189.67418319 355.05038324 185.24095356 358.03272257 179.265625 360.859375 C175.22910226 362.21975007 171.32083422 362.31181804 167.09375 362.53515625 C164.24020657 362.69182329 164.24020657 362.69182329 161.125 364.3125 C158.87975338 367.63879129 159.35539533 369.46342396 159.86987305 373.32958984 C161.02347579 378.3756715 163.75974927 382.68244749 166.28710938 387.15039062 C169.09292783 392.36119632 170.05592211 395.87951288 169.4375 401.8125 C167.875 404.3125 167.875 404.3125 165.4375 405.8125 C161.63745727 406.35536325 159.46208527 406.51507276 156.25 404.3125 C153.8567131 401.01141462 152.12672978 397.5144291 150.4375 393.8125 C149.798125 394.080625 149.15875 394.34875 148.5 394.625 C147.489375 395.016875 146.47875 395.40875 145.4375 395.8125 C144.87546875 396.08835937 144.3134375 396.36421875 143.734375 396.6484375 C137.36818783 399.38038396 131.46382124 398.75896433 124.73364258 397.96948242 C120.10056505 397.46288958 120.10056505 397.46288958 116.01171875 399.453125 C114.31718943 401.99281659 113.43059571 404.2024111 112.5625 407.125 C110.25807383 413.8239133 107.0590937 418.46470936 101 422.25 C94.85988733 424.96060636 87.97013515 424.65586665 81.4375 423.8125 C78.65826924 422.70080769 76.23431983 421.38972841 73.66796875 419.859375 C69.99049896 418.13334715 67.30115202 418.88236155 63.4375 419.8125 C63.0971875 420.864375 63.0971875 420.864375 62.75 421.9375 C61.56705863 424.52870491 60.63686948 425.78935661 58.75 427.8125 C56.18606158 430.46759372 56.18606158 430.46759372 56.54467773 432.97363281 C57.78853399 436.92866714 59.5648324 440.52815007 61.41015625 444.234375 C61.81149277 445.05262756 62.21282928 445.87088013 62.62632751 446.71392822 C63.91208664 449.33284903 65.2056863 451.94779801 66.5 454.5625 C68.18064415 457.97284878 69.85838784 461.38461914 71.53515625 464.796875 C71.94553131 465.63190552 72.35590637 466.46693604 72.77871704 467.32727051 C75.57144585 473.02037729 78.33750819 478.72540526 81.05859375 484.453125 C81.40181168 485.16901794 81.7450296 485.88491089 82.09864807 486.62249756 C84.4375 491.57795601 84.4375 491.57795601 84.4375 493.8125 C89.8574793 492.33826046 92.91721673 488.64684221 96.6796875 484.72265625 C98.08974002 483.28440351 99.49989961 481.84625572 100.91015625 480.40820312 C103.11407109 478.14218198 105.31453001 475.87290127 107.51220703 473.60083008 C109.64275914 471.40368329 111.78557066 469.21905562 113.9296875 467.03515625 C114.57783417 466.35695328 115.22598083 465.67875031 115.89376831 464.97999573 C122.62900175 458.13698508 129.30220611 456.38881184 138.60546875 455.2421875 C139.5627034 455.11562775 140.51993805 454.98906799 141.50617981 454.8586731 C144.54462897 454.458712 147.58463198 454.07257633 150.625 453.6875 C153.67566195 453.29254716 156.72592949 452.89473897 159.7759552 452.49490356 C161.66864621 452.24770562 163.56177347 452.00381974 165.45536804 451.76364136 C166.31338516 451.65327545 167.17140228 451.54290955 168.05541992 451.42919922 C168.80707932 451.33387909 169.55873871 451.23855896 170.33317566 451.14035034 C172.41118662 450.81659958 174.40676418 450.35539148 176.4375 449.8125 C175.03507558 445.22274737 173.57143059 440.90077259 171.25 436.6875 C169.31246608 432.93212537 168.78178864 430.07462387 169.4375 425.8125 C170.9375 423.375 170.9375 423.375 173.4375 421.8125 C176.24218955 421.20328465 178.68486809 420.94692629 181.4375 421.8125 C187.82920581 428.33002679 193.88656065 440.29904633 194.125 449.5 C193.56862764 454.98026776 191.51316542 458.96380759 187.8125 463 C181.81610727 467.71145143 173.759859 467.88946353 166.4375 468.8125 C165.20451172 468.96960449 163.97152344 469.12670898 162.70117188 469.28857422 C162.03549194 469.37316895 161.36981201 469.45776367 160.68395996 469.54492188 C159.29597594 469.72132938 157.90803671 469.89808968 156.5201416 470.07519531 C153.02793121 470.51969158 149.53509378 470.95423479 146.0390625 471.36767578 C144.74226563 471.52606934 143.44546875 471.68446289 142.109375 471.84765625 C140.9450293 471.9856665 139.78068359 472.12367676 138.58105469 472.26586914 C131.40533919 473.51365005 128.08258256 476.79292235 123.16015625 481.90234375 C122.47118759 482.60267227 121.78221893 483.30300079 121.07237244 484.02455139 C118.13256406 487.01328758 115.21079728 490.01943874 112.28735352 493.02416992 C110.14698712 495.21889786 107.99759849 497.40450195 105.84765625 499.58984375 C105.1943483 500.26804672 104.54104034 500.94624969 103.86793518 501.64500427 C98.7171725 506.87755609 94.17272115 510.23175495 86.5625 510.3125 C85.59570312 510.3434375 84.62890625 510.374375 83.6328125 510.40625 C78.21780657 509.40003863 74.14048787 507.16305816 70.86962891 502.6484375 C69.35478091 499.99993387 68.00503556 497.3144642 66.6875 494.5625 C66.18508789 493.55759521 65.68267578 492.55269043 65.16503906 491.51733398 C63.56337141 488.29433868 61.9969701 485.05610155 60.4375 481.8125 C59.91542969 480.73564941 59.39335937 479.65879883 58.85546875 478.54931641 C56.28761096 473.25032203 53.74220098 467.94136958 51.21875 462.62109375 C48.47673329 456.85662681 45.62774743 451.14978416 42.67089844 445.49243164 C41.24098108 442.70316728 40.4375 440.9998272 40.4375 437.8125 C39.880625 437.78671875 39.32375 437.7609375 38.75 437.734375 C30.11413794 437.09252039 24.30381142 434.1678041 18.2734375 427.984375 C15.5231063 426.22884445 13.63272413 426.39025945 10.4375 426.8125 C7.92685611 428.55682594 5.88352746 430.55429175 3.68359375 432.671875 C0.24589775 434.93885142 -1.85105737 435.25822609 -5.83203125 436.02734375 C-11.21623253 437.58916152 -13.55457883 439.41850565 -16.27833557 444.12419128 C-18.22170433 447.89899777 -19.96874666 451.74390172 -21.6875 455.625 C-22.45370053 457.26349571 -23.2242429 458.89996779 -23.99902344 460.53442383 C-25.89048843 464.54639373 -27.73391385 468.57822042 -29.56335449 472.61877441 C-31.47240458 476.81028806 -33.45502153 480.96622604 -35.44091797 485.12182617 C-36.31935602 486.96517009 -37.18665278 488.81389023 -38.03955078 490.66918945 C-44.39956264 504.32733493 -44.39956264 504.32733493 -50.1875 508.875 C-56.51579723 510.63286034 -62.81463477 511.14263742 -68.81762695 508.23681641 C-73.14363447 505.67663046 -76.23589484 502.23285858 -79.578125 498.52734375 C-80.92500394 497.09374667 -82.27403488 495.66216896 -83.625 494.23242188 C-85.71905586 492.00333652 -87.79792809 489.76622159 -89.84179688 487.4909668 C-98.73621592 477.63757784 -105.41356368 471.97251111 -118.92626953 471.04516602 C-119.70335266 471.0091629 -120.48043579 470.97315979 -121.28106689 470.93606567 C-124.80547163 470.74517888 -128.27572204 470.23417653 -131.76953125 469.75 C-135.61143192 469.27245351 -139.45379548 468.80324379 -143.29882812 468.3515625 C-144.54728516 468.19429688 -145.79574219 468.03703125 -147.08203125 467.875 C-148.18651611 467.74222656 -149.29100098 467.60945313 -150.42895508 467.47265625 C-155.57331714 466.38887323 -159.54735486 464.40254362 -162.875 460.3125 C-163.36613281 459.7246875 -163.85726562 459.136875 -164.36328125 458.53125 C-167.42962366 454.13649214 -167.13942173 448.93268035 -166.5625 443.8125 C-165.42923213 440.25822458 -163.78760355 437.05113892 -162.0625 433.75 C-161.0567708 431.7385416 -160.05159746 429.7268052 -159.046875 427.71484375 C-158.49322266 426.62284668 -157.93957031 425.53084961 -157.36914062 424.40576172 C-154.28359533 418.29833231 -151.33053356 412.12530491 -148.35375977 405.96438599 C-147.34244999 403.87439519 -146.32722875 401.78635662 -145.31054688 399.69897461 C-143.70466203 396.40155673 -142.11129536 393.09827818 -140.52172852 389.79296875 C-139.53318148 387.75196759 -138.52778804 385.7197964 -137.52148438 383.6875 C-136.87321127 382.35440321 -136.22540737 381.02107812 -135.578125 379.6875 C-134.99836914 378.50929688 -134.41861328 377.33109375 -133.82128906 376.1171875 C-132.52045829 372.70212828 -132.16584069 370.42795203 -132.5625 366.8125 C-134.25183955 364.23604734 -134.25183955 364.23604734 -137.5625 362.8125 C-139.45274153 362.6064943 -141.35083582 362.46788062 -143.25 362.375 C-150.43225316 361.96862405 -156.28836354 360.11380772 -161.4453125 354.9140625 C-164.50700459 351.05366812 -166.04365017 347.5029481 -167.5625 342.8125 C-168.29641968 342.80663376 -169.03033936 342.80076752 -169.78649902 342.79472351 C-176.7302239 342.73662644 -183.67367805 342.66445318 -190.61708832 342.57678509 C-194.18610846 342.53221034 -197.75501786 342.49292676 -201.32421875 342.46606445 C-204.77389862 342.43990149 -208.22314928 342.3994099 -211.67256165 342.34931374 C-213.61766814 342.32470684 -215.56294115 342.31463393 -217.50817871 342.30485535 C-231.7388224 342.07024429 -231.7388224 342.07024429 -237.62109375 337.05859375 C-238.07613281 336.46175781 -238.53117188 335.86492187 -239 335.25 C-239.47308594 334.65058594 -239.94617188 334.05117188 -240.43359375 333.43359375 C-243.85941129 328.51416718 -243.42046507 322.55833052 -242.5625 316.8125 C-240.77281479 309.68919109 -238.05480462 302.81352899 -235.5 295.9375 C-234.48047444 293.17597326 -233.46753646 290.41279138 -232.47328186 287.64205933 C-231.8585882 285.93026148 -231.22948765 284.22354465 -230.58372498 282.52322388 C-227.61885469 274.29204662 -229.58039775 268.16940597 -232.50390625 260.23828125 C-233.09381976 258.58424127 -233.68298891 256.92993566 -234.27148438 255.27539062 C-235.19389745 252.70334779 -236.12178997 250.13374635 -237.06323242 247.56860352 C-244.93104336 226.04971582 -244.93104336 226.04971582 -241.4375 215.375 C-238.75312533 211.70635462 -235.67417834 208.86833917 -231.5625 206.8125 C-229.38425039 206.72690882 -227.20334745 206.70536588 -225.0234375 206.71484375 C-223.72148437 206.71806641 -222.41953125 206.72128906 -221.078125 206.72460938 C-219.69791601 206.73296534 -218.31770768 206.74143029 -216.9375 206.75 C-215.54948074 206.75501499 -214.16145978 206.7595779 -212.7734375 206.76367188 C-209.36974868 206.77549024 -205.96614561 206.79196566 -202.5625 206.8125 C-202.98583618 205.94129517 -202.98583618 205.94129517 -203.41772461 205.05249023 C-206.91723517 197.58147792 -208.25015978 191.12190753 -205.6796875 183.03515625 C-202.11279592 175.18090823 -196.83925329 171.09294311 -189.5625 166.8125 C-187.99821762 163.68393524 -188.28242914 161.28537869 -188.5625 157.8125 C-189.43601814 155.64458681 -190.45149846 153.64942032 -191.58984375 151.609375 C-194.27839445 146.64257451 -194.33576405 141.11866048 -193.06640625 135.69140625 C-190.62392778 128.61235849 -187.47260554 123.51168112 -180.6875 120.0625 C-177.67716509 118.68763062 -174.62835457 117.43180081 -171.5625 116.1875 C-168.32131389 115.01976247 -168.32131389 115.01976247 -166.5625 111.8125 C-166.5394134 109.88688042 -166.5394134 109.88688042 -166.9375 107.8125 C-168.11231308 98.87811908 -168.87025804 90.56890374 -163.5625 82.8125 C-157.12392827 75.72640588 -151.93856853 73.00044118 -142.4375 72.4375 C-141.42429687 72.40914063 -140.41109375 72.38078125 -139.3671875 72.3515625 C-135.7808423 71.66226495 -134.65400447 70.79760338 -132.5625 67.8125 C-131.83070267 64.36241216 -131.83070267 64.36241216 -131.625 60.5625 C-130.67361107 51.19610413 -127.51665017 46.04265509 -120.40625 40.0390625 C-115.86441572 37.017588 -112.03166875 36.56042524 -106.625 36.625 C-105.44035156 36.63144531 -104.25570312 36.63789062 -103.03515625 36.64453125 C-99.5625 36.8125 -99.5625 36.8125 -96.43359375 37.51171875 C-93.53000203 38.03495943 -93.53000203 38.03495943 -90.84765625 36.7734375 C-87.91252074 34.25474002 -87.20058475 32.09363613 -86 28.4375 C-83.88507077 22.07075803 -81.41307852 17.58198864 -75.5625 14.0625 C-74.9025 13.65515625 -74.2425 13.2478125 -73.5625 12.828125 C-67.76635043 9.8847678 -60.39377189 9.84842178 -54.171875 11.4140625 C-51.02582543 12.56761401 -48.35168838 13.95304108 -45.5625 15.8125 C-42.16956762 16.2456403 -40.34433938 16.39887953 -37.5625 14.3125 C-35.85660253 12.18012816 -34.23912191 10.01394871 -32.625 7.8125 C-24.78528147 -2.78490846 -12.12035085 -5.78719455 0 0 Z M-18.125 15.8125 C-19.44459488 17.43661678 -20.74905334 19.07639198 -21.95703125 20.78515625 C-26.16950154 26.73151932 -30.18756471 30.31533268 -37.5625 31.8125 C-45.02211849 32.61081005 -50.88664298 31.17065838 -57.5625 27.8125 C-57.8925 27.4825 -58.2225 27.1525 -58.5625 26.8125 C-62.00546666 26.42125379 -64.06976929 26.56613465 -67.1875 28.125 C-69.63795783 30.89788649 -70.30611386 32.60601947 -71.4375 36.0625 C-73.71157652 42.79484511 -76.73010461 47.38285529 -82.79296875 51.2265625 C-89.81667624 54.42806638 -96.52712847 53.88796541 -104.01269531 53.02172852 C-108.84769269 52.44405106 -108.84769269 52.44405106 -113.06640625 54.59375 C-115.39294303 58.04407086 -115.64948988 60.82885585 -115.8125 64.875 C-116.44265 71.88078526 -118.44640221 77.55476141 -123.3671875 82.69921875 C-129.08392908 87.15396266 -135.10047249 87.71939937 -142.109375 88.1953125 C-146.0609654 88.90159223 -147.78524489 89.95264994 -150.5625 92.8125 C-151.59879667 96.9576867 -151.58528445 99.76648504 -150.5625 103.8125 C-149.65204973 111.95452666 -150.93468857 118.0127024 -155.5625 124.8125 C-159.88146459 129.55282699 -164.76353626 131.27088442 -170.7578125 133.40625 C-174.04868342 135.05626884 -175.56949341 136.74193482 -177.5625 139.8125 C-177.5625 143.73341563 -176.23811989 146.46728824 -174.5 149.875 C-171.44370549 156.54940787 -171.41951713 163.5413535 -173.3046875 170.5859375 C-176.02987936 177.0508087 -180.33527121 180.36075089 -186.13671875 184.12109375 C-188.78203328 185.74610632 -188.78203328 185.74610632 -190.5625 188.8125 C-191.05001407 192.56892418 -190.89529039 194.28791926 -188.84765625 197.515625 C-188.11417969 198.35609375 -187.38070312 199.1965625 -186.625 200.0625 C-182.58781646 204.76186709 -182.58781646 204.76186709 -181.5625 206.8125 C-178.58327407 206.83933987 -175.60428705 206.85926037 -172.625 206.875 C-171.77486328 206.88337891 -170.92472656 206.89175781 -170.04882812 206.90039062 C-169.23994141 206.90361328 -168.43105469 206.90683594 -167.59765625 206.91015625 C-166.8487915 206.91539307 -166.09992676 206.92062988 -165.32836914 206.92602539 C-163.53582261 207.00591752 -163.53582261 207.00591752 -162.5625 205.8125 C-162.33610181 204.37883299 -162.16582675 202.93622866 -162.01953125 201.4921875 C-156.82058504 154.23206255 -135.63642734 110.98900244 -98.54858398 80.57006836 C-77.70620904 63.97178832 -53.68808571 52.27079054 -27.8125 46 C-27.01046143 45.80510986 -26.20842285 45.61021973 -25.38208008 45.40942383 C-12.64312652 42.50413831 0.07926732 41.42816985 13.125 41.5 C14.1664064 41.50273422 14.1664064 41.50273422 15.22885132 41.50552368 C53.42899846 41.67344964 91.30887597 53.99179725 121.4375 77.8125 C122.29085938 78.44929688 123.14421875 79.08609375 124.0234375 79.7421875 C127.60001195 82.56579891 129.20093395 84.07790018 130.625 88.5 C130.4375 91.8125 130.4375 91.8125 129.5 94.25 C126.86710706 96.24461587 124.74629617 96.20344456 121.50854492 96.1315918 C118.07295721 95.602261 116.14153115 93.74704204 113.5625 91.5 C80.39115593 64.02579709 37.44589981 53.55480324 -4.96533203 57.09667969 C-46.72198314 61.90459167 -86.24462689 83.76942441 -112.54858398 116.62084961 C-129.75631364 138.80110458 -139.8427198 163.54678084 -145.5625 190.8125 C-145.87767578 192.29363281 -145.87767578 192.29363281 -146.19921875 193.8046875 C-146.72305278 198.14180798 -146.64010055 202.44962438 -146.5625 206.8125 C-145.8511792 206.8218457 -145.1398584 206.83119141 -144.40698242 206.84082031 C-141.1872794 206.89446888 -137.96903817 206.97812635 -134.75 207.0625 C-133.63044922 207.07667969 -132.51089844 207.09085938 -131.35742188 207.10546875 C-129.74770508 207.15380859 -129.74770508 207.15380859 -128.10546875 207.203125 C-127.11571045 207.22407227 -126.12595215 207.24501953 -125.10620117 207.26660156 C-122.5625 207.8125 -122.5625 207.8125 -120.7043457 209.62402344 C-118.98590259 212.91761422 -119.71432755 215.28932213 -120.5625 218.8125 C-122.94247555 221.19247555 -123.42606885 221.06593038 -126.66186523 221.08424377 C-127.51996796 221.0939621 -128.37807068 221.10368042 -129.26217651 221.11369324 C-130.2056192 221.11428238 -131.14906189 221.11487152 -132.12109375 221.11547852 C-133.60900925 221.12813751 -133.60900925 221.12813751 -135.12698364 221.14105225 C-138.41799372 221.16692032 -141.70891403 221.17899103 -145 221.19140625 C-147.27922282 221.20757091 -149.55843865 221.22474979 -151.83764648 221.24290466 C-157.84725727 221.28868089 -163.85687722 221.32344005 -169.86657715 221.35510254 C-179.48714728 221.40689608 -189.1076148 221.4719879 -198.72805786 221.54331779 C-202.09726048 221.56621771 -205.46644998 221.58244663 -208.83569336 221.59803772 C-210.89176579 221.61144089 -212.94783685 221.62505539 -215.00390625 221.63891602 C-216.41907028 221.64283607 -216.41907028 221.64283607 -217.86282349 221.64683533 C-218.72092621 221.65373383 -219.57902893 221.66063232 -220.46313477 221.66773987 C-221.21087662 221.67159478 -221.95861847 221.6754497 -222.72901917 221.67942142 C-224.66016199 221.70245982 -224.66016199 221.70245982 -226.5625 222.8125 C-225.95803332 228.44080828 -224.50594415 233.38636345 -222.62109375 238.7109375 C-222.03147735 240.42433342 -221.44229811 242.13787983 -220.85351562 243.8515625 C-219.92845128 246.52151751 -218.99918285 249.18982365 -218.06176758 251.85546875 C-217.15262156 254.44906097 -216.26088574 257.04815259 -215.37109375 259.6484375 C-214.94926064 260.82543716 -214.94926064 260.82543716 -214.51890564 262.0262146 C-211.3157797 271.46623405 -212.39490264 278.65040211 -215.66015625 287.921875 C-215.97327255 288.85171204 -216.28638885 289.78154907 -216.60899353 290.73956299 C-217.60155111 293.68507001 -218.61124508 296.62422676 -219.625 299.5625 C-220.6417294 302.51522657 -221.65416719 305.469019 -222.65171814 308.42828369 C-223.27020586 310.26300522 -223.89962934 312.09408592 -224.54127502 313.9208374 C-224.82164108 314.75230286 -225.10200714 315.58376831 -225.39086914 316.44042969 C-225.64179825 317.16607117 -225.89272736 317.89171265 -226.15126038 318.63934326 C-226.79280783 321.2860545 -226.79280783 321.2860545 -225.5625 325.8125 C-67.8225 325.8125 89.9175 325.8125 252.4375 325.8125 C253.49695495 320.86198116 253.49695495 320.86198116 252.26586914 316.53222656 C251.98550308 315.72078186 251.70513702 314.90933716 251.41627502 314.07330322 C251.10488083 313.20864441 250.79348663 312.3439856 250.47265625 311.453125 C249.8313659 309.59635911 249.19009032 307.73958811 248.54882812 305.8828125 C247.52759548 302.97424781 246.50172136 300.06736715 245.47387695 297.16113281 C244.48281222 294.34565697 243.50855455 291.5247481 242.53515625 288.703125 C242.22578629 287.84656311 241.91641632 286.99000122 241.59767151 286.10748291 C238.5126995 277.14092862 238.84600193 270.13767873 241.9921875 261.26953125 C242.38460129 260.11139168 242.38460129 260.11139168 242.78494263 258.92985535 C243.61473823 256.49032665 244.46314265 254.05777794 245.3125 251.625 C245.87495697 249.98285258 246.43616566 248.34027705 246.99609375 246.69726562 C248.02599957 243.68062704 249.06299547 240.66664992 250.10888672 237.65551758 C250.44771881 236.67429428 250.44771881 236.67429428 250.793396 235.67324829 C251.3928246 233.94156249 251.99911653 232.21225665 252.60595703 230.4831543 C253.45070475 227.77009049 253.603507 225.63461899 253.4375 222.8125 C250.77538256 221.48144128 248.76329117 221.68514105 245.78055668 221.68221474 C244.56968641 221.67859039 243.35881615 221.67496604 242.11125284 221.67123187 C240.75540731 221.67222861 239.39956184 221.67331074 238.04371643 221.67446899 C236.61282187 221.67205247 235.18192801 221.66919068 233.75103515 221.66591966 C229.80499604 221.65814403 225.85897429 221.65654605 221.91292846 221.65586853 C217.66269071 221.65403285 213.41246321 221.64642836 209.16223145 221.63938904 C201.79307241 221.62785044 194.42391567 221.619613 187.05475044 221.61326981 C175.41383981 221.6029595 163.77295788 221.58240062 152.13206482 221.56015015 C148.15252409 221.55267007 144.17298324 221.54525642 140.19344234 221.53786278 C139.19886164 221.53601221 138.20428094 221.53416165 137.17956143 221.532255 C125.8520509 221.51131781 114.52453721 221.49249375 103.19702148 221.47460938 C102.16119609 221.47297119 101.1253707 221.47133301 100.05815666 221.46964519 C83.26351274 221.44334707 66.4688666 221.4247114 49.67421079 221.40801747 C32.44706796 221.3906165 15.21996848 221.36179307 -2.00713974 221.3231281 C-12.64196655 221.2996881 -23.27672271 221.28572995 -33.91157556 221.28380047 C-41.19506429 221.28169628 -48.47848265 221.26881077 -55.76193982 221.24732114 C-59.96884501 221.23525481 -64.17561048 221.22816545 -68.38253212 221.23403358 C-72.22974971 221.23930412 -76.07668151 221.23093771 -79.92385126 221.21147721 C-81.31952133 221.20687815 -82.7152191 221.20740403 -84.11088376 221.21342559 C-86.00049032 221.22085389 -87.89014452 221.20823253 -89.77971554 221.19446754 C-90.83159587 221.19311102 -91.8834762 221.19175449 -92.96723169 221.19035685 C-95.5625 220.8125 -95.5625 220.8125 -97.40048653 219.50737703 C-99.35212921 216.66077118 -98.91894026 214.13927577 -98.5625 210.8125 C-96.99059617 208.66036601 -96.10629514 207.91076421 -93.46506864 207.43349248 C-92.24104015 207.43064458 -92.24104015 207.43064458 -90.99228382 207.42773914 C-90.04927727 207.4182826 -89.10627071 207.40882606 -88.1346882 207.39908296 C-87.09676163 207.40393053 -86.05883506 207.40877811 -84.98945618 207.41377258 C-83.88841732 207.40712576 -82.78737846 207.40047893 -81.65297478 207.39363068 C-77.9447454 207.37490243 -74.23683589 207.37761262 -70.52856445 207.38012695 C-67.87789527 207.37111578 -65.22725535 207.360922 -62.57659912 207.34924316 C-56.86026214 207.32642422 -51.14398623 207.3145664 -45.42760658 207.31011391 C-37.16265773 207.30366055 -28.89781942 207.2807376 -20.63291504 207.25377061 C-7.22428637 207.21046889 6.18433766 207.1805215 19.59301758 207.15893555 C32.61973352 207.13793598 45.64641144 207.11066985 58.6730957 207.07495117 C59.87716616 207.07165293 59.87716616 207.07165293 61.10556128 207.06828807 C65.13246483 207.05721867 69.15936803 207.04602581 73.18627107 207.03477156 C106.60331559 206.94153855 140.02037492 206.86996282 173.4375 206.8125 C173.45464505 205.24198229 173.46675261 203.67140919 173.47680664 202.10083008 C173.48410294 201.22622635 173.49139923 200.35162262 173.49891663 199.45051575 C173.40391288 195.36983937 172.70446953 191.48764624 171.875 187.5 C171.69936523 186.64825195 171.52373047 185.79650391 171.34277344 184.91894531 C167.88038874 168.99197568 162.32957106 154.05624289 154.4375 139.8125 C153.53837891 138.17861328 153.53837891 138.17861328 152.62109375 136.51171875 C149.34849635 130.74989737 145.8051892 125.38611564 141.72265625 120.1640625 C140.09114922 117.17875176 140.09371961 115.16779663 140.4375 111.8125 C142.52860663 108.75626723 143.73056849 107.94786986 147.375 107.25 C151.42486356 107.99385249 152.98728551 109.71349632 155.4375 112.8125 C156.26314453 113.78896484 156.26314453 113.78896484 157.10546875 114.78515625 C169.05156488 129.93329877 176.96612127 148.44429996 182.4375 166.8125 C182.64310547 167.48764648 182.84871094 168.16279297 183.06054688 168.85839844 C185.95192458 178.55960342 187.3189428 188.32953179 188.48730469 198.3605957 C188.59848633 199.31281006 188.70966797 200.26502441 188.82421875 201.24609375 C188.91920654 202.10259521 189.01419434 202.95909668 189.11206055 203.84155273 C189.24047533 205.80962991 189.24047533 205.80962991 190.4375 206.8125 C193.39333591 207.04671368 196.28986798 207.18350594 199.25 207.25 C200.07048828 207.29576172 200.89097656 207.34152344 201.73632812 207.38867188 C204.11102657 207.43296876 206.13194002 207.39101063 208.4375 206.8125 C210.94130072 204.07533637 210.94130072 204.07533637 212.4375 200.8125 C213.33347429 199.79391871 214.24585763 198.78901801 215.1875 197.8125 C217.63596577 195.01205302 217.63596577 195.01205302 218 191.75 C217.26691937 187.92169003 216.24157327 186.54818124 213.4375 183.8125 C211.9661495 182.90388617 210.48612395 182.00924375 209 181.125 C203.70789556 177.68425883 201.17970837 173.8643817 199.4375 167.8125 C198.18735165 159.48506554 199.58703244 153.59125478 203.375 146.1875 C204.66361535 143.72301183 204.66361535 143.72301183 204.5 140.375 C203.24516792 137.34864028 201.91238706 135.95029038 199.4375 133.8125 C196.88398638 132.70533036 196.88398638 132.70533036 194.125 131.9375 C187.06491188 129.49941624 182.46178664 126.35625179 179 119.625 C176.32963665 112.83497354 177.07357551 105.99626361 178.1875 98.9375 C178.6407718 95.47276488 178.55287647 95.00346796 176.625 91.8125 C172.97457256 88.47496634 170.24297507 88.57817486 165.375 88.125 C158.56112523 87.30636046 153.28234188 85.87756196 148.4375 80.8125 C144.16599444 74.92112397 143.02946652 69.38892279 142.67578125 62.234375 C142.26322599 58.04119039 140.32075804 55.69575804 137.4375 52.8125 C133.80489633 52.61435798 130.45245108 52.66684992 126.8515625 53.18359375 C119.5455756 54.19889565 113.93437717 53.47015091 107.4375 49.8125 C101.71549346 45.2900978 99.60829386 40.02126006 97.390625 33.24609375 C96.08256112 29.90624212 94.637559 28.4125295 91.4375 26.8125 C85.92908015 25.85451394 82.98622837 28.03272155 78.4375 30.8125 C71.83719445 32.92729178 64.56820693 32.53386226 58.2421875 29.77734375 C52.28245968 26.59108234 49.17564018 22.31338364 45.63671875 16.703125 C44.57510474 14.8773157 44.57510474 14.8773157 43.4375 13.8125 C37.94303239 13.35884264 37.94303239 13.35884264 32.9375 15.1875 C31.21140663 16.68885519 31.21140663 16.68885519 31.4375 18.8125 C30.10416667 19.47916667 28.77083333 20.14583333 27.4375 20.8125 C26.57125 21.328125 25.705 21.84375 24.8125 22.375 C17.60573776 25.44454688 10.75938545 25.37515991 3.4375 22.8125 C1.4034094 21.53177629 -0.60652816 20.20962274 -2.5625 18.8125 C-3.2225 18.8125 -3.8825 18.8125 -4.5625 18.8125 C-4.995625 17.8534375 -4.995625 17.8534375 -5.4375 16.875 C-6.39073451 14.66043921 -6.39073451 14.66043921 -8.5625 13.8125 C-12.71944086 13.34190292 -14.76834718 13.19267341 -18.125 15.8125 Z M-149.5625 341.8125 C-149.5625 342.4725 -149.5625 343.1325 -149.5625 343.8125 C-145.96907783 346.20811478 -143.71259718 346.23203652 -139.4375 346.625 C-132.09610565 347.47594636 -125.76837138 348.84775086 -120.9453125 354.8125 C-117.87924977 359.52418962 -116.51439988 363.49765198 -116.1875 369.125 C-115.79971619 373.63522405 -115.19521807 377.009685 -112.5625 380.8125 C-110.87999122 382.40380748 -110.87999122 382.40380748 -108.5625 382.8125 C-106.99763806 382.60838757 -105.4334143 382.39304872 -103.87890625 382.12109375 C-96.24905464 381.10463797 -87.92626302 380.38740949 -81.1640625 384.57421875 C-75.0608905 389.29301271 -73.26801865 394.69594404 -70.87109375 401.88671875 C-69.47345948 405.01157865 -68.52644477 406.17527337 -65.5625 407.8125 C-61.26081056 408.39157358 -58.52248793 407.95806699 -54.8125 405.875 C-49.25240181 402.86372825 -43.28628252 402.10042874 -37.0703125 403.2890625 C-29.04156681 405.74904855 -24.34057426 409.51194058 -20.0546875 416.69140625 C-18.37609898 419.07746271 -17.1507085 420.4447101 -14.5625 421.8125 C-9.64957399 421.70128863 -7.12837988 420.05486383 -3.5 416.875 C3.19168907 411.05016481 8.22454369 410.35356754 16.9921875 410.5 C23.48457594 411.08887877 27.32468436 413.7349382 32.0625 418 C34.30621061 419.99440943 35.62710151 420.88601895 38.5 422 C41.89143286 421.78352556 43.53698258 420.76603932 46.015625 418.47265625 C47.54754694 416.68401113 48.60982307 414.87028508 49.75 412.8125 C52.62200076 407.98936221 56.19982554 405.70163026 61.4375 403.8125 C69.55845369 401.92853236 76.16632088 403.02543977 83.4765625 406.890625 C86.62361879 408.3701176 89.01895715 408.23232105 92.4375 407.8125 C97.45287228 404.43003962 98.5695506 399.93751728 100.421875 394.46875 C102.60039906 388.77107169 106.38531558 385.03943132 111.92578125 382.49609375 C118.23222075 380.77972219 125.28456665 381.2361163 131.6640625 382.40234375 C135.49759887 382.96927519 137.27670504 381.96758747 140.4375 379.8125 C142.19250331 376.32040158 142.66671562 373.37450026 142.8125 369.5 C143.33920403 362.75273981 145.46701078 358.36254487 149.5625 353.0625 C156.06438829 347.97406569 162.94981308 346.39045663 171.08984375 346.0859375 C173.70662802 345.96148679 173.70662802 345.96148679 176.4375 343.8125 C176.4375 343.1525 176.4375 342.4925 176.4375 341.8125 C171.2091688 341.56331278 165.9843634 341.38296245 160.75146484 341.26318359 C158.97611229 341.21321453 157.2011646 341.14520727 155.42724609 341.05810547 C144.86640483 340.32075766 144.86640483 340.32075766 135.24536133 343.87207031 C132.76237369 346.39646869 130.60915128 349.01969725 128.4375 351.8125 C126.03793328 353.98362132 123.48416865 355.90093704 120.875 357.8125 C120.20154541 358.31031982 119.52809082 358.80813965 118.83422852 359.32104492 C91.72585311 378.9836115 57.83080148 392.81139926 24.01171875 393.015625 C23.23090439 393.02272995 22.45009003 393.0298349 21.64561462 393.03715515 C-11.05495625 393.26718779 -11.05495625 393.26718779 -24.5625 389.8125 C-25.48595215 389.58143555 -26.4094043 389.35037109 -27.36083984 389.11230469 C-41.0077539 385.61083731 -53.98497006 381.17553003 -66.5625 374.8125 C-67.2421582 374.46993164 -67.92181641 374.12736328 -68.62207031 373.77441406 C-83.46836153 366.15601594 -98.93591652 355.92525254 -109.94306946 343.21879578 C-112.79122317 340.74549024 -116.57373149 341.45130604 -120.16796875 341.51953125 C-121.00717361 341.52377609 -121.84637848 341.52802094 -122.71101379 341.53239441 C-125.39100245 341.54918536 -128.0702387 341.5868377 -130.75 341.625 C-132.56704643 341.64004633 -134.38410465 341.65373482 -136.20117188 341.66601562 C-140.65523776 341.69909018 -145.10874132 341.75087487 -149.5625 341.8125 Z M-87.5625 341.8125 C-83.6020773 345.87698829 -83.6020773 345.87698829 -79.3203125 349.20703125 C-78.73733398 349.60108154 -78.15435547 349.99513184 -77.55371094 350.40112305 C-76.93786133 350.80500244 -76.32201172 351.20888184 -75.6875 351.625 C-75.03040039 352.05659424 -74.37330078 352.48818848 -73.69628906 352.93286133 C-38.36886968 375.78955005 4.28230787 383.74319016 45.60742188 375.54467773 C70.46689017 370.10873333 96.1931416 360.0568584 114.4375 341.8125 C47.7775 341.8125 -18.8825 341.8125 -87.5625 341.8125 Z M-123.5625 392.8125 C-124.03703613 393.76374756 -124.51157227 394.71499512 -125.00048828 395.69506836 C-128.28134843 402.26669571 -131.56868057 408.834753 -134.8883667 415.38687134 C-136.36877186 418.30998597 -137.84425079 421.2355748 -139.31933594 424.16137695 C-140.07344778 425.6542879 -140.82968122 427.14612881 -141.58789062 428.63696289 C-142.70753631 430.83977517 -143.81931082 433.04641024 -144.9296875 435.25390625 C-145.26612274 435.91129288 -145.60255798 436.5686795 -145.94918823 437.24598694 C-148.01015346 441.36643193 -149.42222504 445.34612294 -150.5625 449.8125 C-146.07882708 451.93275575 -141.76038229 452.44809637 -136.89453125 452.99609375 C-135.17902804 453.2037065 -133.46353353 453.4113911 -131.74804688 453.61914062 C-129.06727971 453.93537381 -126.38619999 454.24870049 -123.70483398 454.55981445 C-97.6189162 457.61132012 -97.6189162 457.61132012 -88.5625 466.8125 C-87.53334391 467.84502967 -86.50403434 468.87740637 -85.47460938 469.90966797 C-81.27998379 474.13734878 -77.10474705 478.3843261 -72.96044922 482.66137695 C-71.17533072 484.50075509 -69.37794756 486.32736682 -67.578125 488.15234375 C-67.03327454 488.72097641 -66.48842407 489.28960907 -65.92706299 489.87547302 C-64.21879614 491.64140835 -64.21879614 491.64140835 -61.5625 493.8125 C-60.2425 493.8125 -58.9225 493.8125 -57.5625 493.8125 C-52.42112125 483.28352002 -47.28772886 472.75072325 -42.16687012 462.21174622 C-39.80843568 457.36146663 -37.43373126 452.5199847 -35.0390625 447.6875 C-34.13000857 445.83343126 -33.22113133 443.97927588 -32.3125 442.125 C-31.9014502 441.30942627 -31.49040039 440.49385254 -31.06689453 439.65356445 C-29.08526918 435.87187377 -29.08526918 435.87187377 -28.86425781 431.73510742 C-29.88373178 428.92798941 -31.62420656 427.07384235 -33.5625 424.8125 C-33.94664062 424.27882813 -34.33078125 423.74515625 -34.7265625 423.1953125 C-36.64301344 420.61119478 -38.24367077 418.95673227 -41.1875 417.625 C-44.79108554 417.8251992 -46.39583353 418.62487791 -49.5625 420.25 C-56.86545924 423.80198426 -64.4273515 424.37699859 -72.2421875 421.99609375 C-78.91880836 418.77018435 -82.97143342 413.23678162 -85.453125 406.3359375 C-85.92620119 404.7908908 -86.39768052 403.2453538 -86.8671875 401.69921875 C-87.50156979 399.64503399 -87.50156979 399.64503399 -89.3125 397.75 C-93.24145558 396.11293517 -96.98982211 396.60550609 -101.14453125 397.15234375 C-107.80001033 397.980788 -112.41072744 397.4473158 -118.5625 394.8125 C-120.22836542 394.14383369 -121.89494652 393.47694535 -123.5625 392.8125 Z " fill="#000000" transform="translate(242.5625,2.1875)"/>
<path d="M0 0 C7.53748248 5.31392515 12.12949169 12.66267217 14.53125 21.52734375 C15.15225821 29.16493822 15.17869863 36.33962385 12.78125 43.65234375 C11.89117449 46.18117031 11.89117449 46.18117031 11.53125 48.52734375 C13.31333561 51.78423369 13.31333561 51.78423369 15.53125 54.52734375 C15.53125 58.33366585 15.37743784 60.51842748 12.90625 63.46484375 C9.5276556 64.97632019 7.20134386 64.97028611 3.53125 64.52734375 C2.603125 63.78484375 1.675 63.04234375 0.71875 62.27734375 C-0.333125 61.69984375 -1.385 61.12234375 -2.46875 60.52734375 C-4.59776285 61.12562076 -4.59776285 61.12562076 -6.84375 62.27734375 C-14.74066774 65.92847891 -23.48910511 65.72476125 -31.84765625 63.71484375 C-42.29732114 59.87128885 -48.96607909 52.76747791 -53.59375 42.7890625 C-57.09633293 33.73551108 -56.6448653 23.038938 -52.92578125 14.12890625 C-47.94644662 5.23819079 -40.62482391 -0.88710521 -31.34375 -4.78515625 C-19.99867565 -6.79799202 -9.96086717 -5.9418464 0 0 Z M-35.84375 18.02734375 C-39.10260548 23.04096757 -40.34523385 27.52509356 -39.46875 33.52734375 C-37.53312323 39.70512261 -33.80558314 43.94881758 -28.46875 47.52734375 C-25.31944107 48.57711339 -23.08060544 48.6286597 -19.78125 48.58984375 C-18.78738281 48.58082031 -17.79351562 48.57179688 -16.76953125 48.5625 C-15.63064453 48.54509766 -15.63064453 48.54509766 -14.46875 48.52734375 C-14.78199219 47.77582031 -15.09523438 47.02429688 -15.41796875 46.25 C-17.02046574 42.09780521 -18.1739583 38.36088533 -16.53125 34.08984375 C-13.94001601 32.12678769 -11.8007628 32.08747706 -8.6015625 32.09375 C-5.81172133 32.66091551 -3.83099629 33.97583356 -1.46875 35.52734375 C-0.78225332 28.01401899 -0.89802664 22.48054135 -5.640625 16.375 C-9.96966414 11.99971044 -14.35917662 10.3396642 -20.46875 9.96484375 C-27.09821705 10.25042079 -31.3830825 13.33190428 -35.84375 18.02734375 Z " fill="#000000" transform="translate(99.46875,246.47265625)"/>
<path d="M0 0 C1.50471738 3.29156927 1.50943968 5.62142225 1 9.1875 C-1.54029966 12.10137314 -3.11427883 13.05558408 -6.9375 13.625 C-10.46391578 13.12122632 -12.82361047 11.77569477 -16 10.1875 C-21.94000234 8.70249941 -26.05387964 9.1738607 -31.65625 11.70703125 C-35.8538392 14.35850843 -38.20670179 17.58516828 -40 22.1875 C-40.94717628 27.46356786 -40.81737135 32.31111144 -38.3125 37.125 C-34.91725495 41.62140561 -31.46757351 44.62533614 -26 46.1875 C-20.6826345 46.67089686 -17.62491573 45.76884832 -13 43.1875 C-12.34 43.1875 -11.68 43.1875 -11 43.1875 C-10.690625 42.40375 -10.38125 41.62 -10.0625 40.8125 C-9 38.1875 -9 38.1875 -8 36.1875 C-8.60328125 36.21070313 -9.2065625 36.23390625 -9.828125 36.2578125 C-10.62734375 36.27585938 -11.4265625 36.29390625 -12.25 36.3125 C-13.03890625 36.33570313 -13.8278125 36.35890625 -14.640625 36.3828125 C-17.24187016 36.16747764 -18.78834026 35.54740457 -21 34.1875 C-23.09679403 31.49162197 -22.99510821 30.094556 -22.8125 26.625 C-21.77209848 22.22330124 -21.77209848 22.22330124 -19 20.1875 C-15.05161415 19.54426951 -11.05735662 19.72428706 -7.0625 19.75 C-5.41604492 19.7200293 -5.41604492 19.7200293 -3.73632812 19.68945312 C-2.67994141 19.69009766 -1.62355469 19.69074219 -0.53515625 19.69140625 C0.430271 19.68955322 1.39569824 19.6877002 2.39038086 19.68579102 C5.71572891 20.32510154 6.887903 21.60133908 9 24.1875 C11.50532188 30.11593494 9.08314306 38.35759807 6.890625 44.0859375 C2.43105136 53.25283886 -2.7618431 58.66824433 -12.25 62.5 C-23.41800894 64.54746831 -32.22739106 62.77299885 -42.1875 57.5 C-50.90519886 50.33211427 -56.21379376 42.91033842 -57.375 31.50390625 C-57.72036697 20.78673735 -55.55956251 12.48728254 -48.8359375 4.07421875 C-36.31721849 -8.7907627 -14.24876507 -12.91294334 0 0 Z " fill="#000000" transform="translate(296,126.8125)"/>
<path d="M0 0 C2.10818228 2.14913848 2.92781742 3.47573199 3.34057617 6.47363281 C3.32486572 7.37436523 3.30915527 8.27509766 3.29296875 9.203125 C3.28172974 10.52812012 3.28172974 10.52812012 3.27026367 11.87988281 C3.24295166 12.99202148 3.21563965 14.10416016 3.1875 15.25 C3.125625 18.7975 3.06375 22.345 3 26 C10.26 26 17.52 26 25 26 C24.88160707 18.93958989 24.88160707 18.93958989 24.72973633 11.87988281 C24.72224365 10.99655273 24.71475098 10.11322266 24.70703125 9.203125 C24.6913208 8.30239258 24.67561035 7.40166016 24.65942383 6.47363281 C25.07218258 3.47573199 25.89181772 2.14913848 28 0 C31.42890226 -0.87281149 33.89259577 -1.32922829 37.3125 -0.3125 C39.40584662 1.31565848 40.01457601 2.53573909 41 5 C41.26069641 7.6872406 41.26069641 7.6872406 41.2746582 10.79077148 C41.28895622 12.53794716 41.28895622 12.53794716 41.30354309 14.32041931 C41.30263168 15.57464188 41.30172028 16.82886444 41.30078125 18.12109375 C41.30506638 19.41314224 41.3093515 20.70519073 41.31376648 22.03639221 C41.32121925 24.7691763 41.32094434 27.50183117 41.31567383 30.23461914 C41.30988053 33.72950454 41.32681063 37.22385973 41.3500185 40.71865749 C41.36832879 44.06115822 41.36456994 47.40354317 41.36328125 50.74609375 C41.372491 51.99829208 41.38170074 53.25049042 41.39118958 54.54063416 C41.38496078 55.7085701 41.37873199 56.87650604 41.37231445 58.07983398 C41.37294388 59.10479477 41.3735733 60.12975555 41.3742218 61.18577576 C40.93921126 64.45714375 39.93362125 66.34830937 38 69 C36.1328125 69.8828125 36.1328125 69.8828125 34.125 70.125 C33.46757812 70.23070312 32.81015625 70.33640625 32.1328125 70.4453125 C28.37590212 69.66090264 27.1871669 68.1239845 25 65 C24.38934664 61.04428981 24.52905682 57.17783047 24.6875 53.1875 C24.71005859 52.11306641 24.73261719 51.03863281 24.75585938 49.93164062 C24.81462559 47.28716112 24.90430167 44.64340067 25 42 C17.74 42 10.48 42 3 42 C3.05800781 43.60230469 3.11601562 45.20460937 3.17578125 46.85546875 C3.22268454 48.96611669 3.26818408 51.07679615 3.3125 53.1875 C3.35439453 54.24259766 3.39628906 55.29769531 3.43945312 56.38476562 C3.56266397 64.19633316 3.56266397 64.19633316 0.73828125 68.23046875 C-1.9945506 69.99647849 -2.977449 70.63107683 -6.125 70.125 C-6.78757812 70.04507813 -7.45015625 69.96515625 -8.1328125 69.8828125 C-10.92987311 68.56035288 -11.63357079 66.73450381 -13 64 C-13.3742218 61.18577576 -13.3742218 61.18577576 -13.37231445 58.07983398 C-13.37854324 56.91189804 -13.38477203 55.7439621 -13.39118958 54.54063416 C-13.38197983 53.28843582 -13.37277008 52.03623749 -13.36328125 50.74609375 C-13.36377975 49.45308853 -13.36427826 48.16008331 -13.36479187 46.82789612 C-13.36470237 44.09681463 -13.3543175 41.3660297 -13.33618164 38.63500977 C-13.31347243 35.13901333 -13.31295673 31.64344889 -13.31969929 28.14739895 C-13.32384818 24.80524812 -13.31186557 21.46322971 -13.30078125 18.12109375 C-13.30169266 16.86687119 -13.30260406 15.61264862 -13.30354309 14.32041931 C-13.29401108 13.15563553 -13.28447906 11.99085175 -13.2746582 10.79077148 C-13.27005081 9.76660629 -13.26544342 8.7424411 -13.26069641 7.6872406 C-12.99425998 4.94083228 -12.46570641 3.31661061 -11 1 C-7.44020669 -1.76872813 -4.1946238 -1.06772242 0 0 Z " fill="#000000" transform="translate(327,121)"/>
<path d="M0 0 C2.10818228 2.14913848 2.92781742 3.47573199 3.34057617 6.47363281 C3.32486572 7.37436523 3.30915527 8.27509766 3.29296875 9.203125 C3.28172974 10.52812012 3.28172974 10.52812012 3.27026367 11.87988281 C3.24295166 12.99202148 3.21563965 14.10416016 3.1875 15.25 C3.125625 18.7975 3.06375 22.345 3 26 C10.26 26 17.52 26 25 26 C24.88160707 18.93958989 24.88160707 18.93958989 24.72973633 11.87988281 C24.72224365 10.99655273 24.71475098 10.11322266 24.70703125 9.203125 C24.6913208 8.30239258 24.67561035 7.40166016 24.65942383 6.47363281 C25.07218258 3.47573199 25.89181772 2.14913848 28 0 C31.42890226 -0.87281149 33.89259577 -1.32922829 37.3125 -0.3125 C39.40584662 1.31565848 40.01457601 2.53573909 41 5 C41.26069641 7.6872406 41.26069641 7.6872406 41.2746582 10.79077148 C41.28895622 12.53794716 41.28895622 12.53794716 41.30354309 14.32041931 C41.30263168 15.57464188 41.30172028 16.82886444 41.30078125 18.12109375 C41.30506638 19.41314224 41.3093515 20.70519073 41.31376648 22.03639221 C41.32121925 24.7691763 41.32094434 27.50183117 41.31567383 30.23461914 C41.30988053 33.72950454 41.32681063 37.22385973 41.3500185 40.71865749 C41.36832879 44.06115822 41.36456994 47.40354317 41.36328125 50.74609375 C41.372491 51.99829208 41.38170074 53.25049042 41.39118958 54.54063416 C41.38496078 55.7085701 41.37873199 56.87650604 41.37231445 58.07983398 C41.37294388 59.10479477 41.3735733 60.12975555 41.3742218 61.18577576 C40.93921126 64.45714375 39.93362125 66.34830937 38 69 C36.1328125 69.8828125 36.1328125 69.8828125 34.125 70.125 C33.46757812 70.23070312 32.81015625 70.33640625 32.1328125 70.4453125 C28.37590212 69.66090264 27.1871669 68.1239845 25 65 C24.38934664 61.04428981 24.52905682 57.17783047 24.6875 53.1875 C24.71005859 52.11306641 24.73261719 51.03863281 24.75585938 49.93164062 C24.81462559 47.28716112 24.90430167 44.64340067 25 42 C17.74 42 10.48 42 3 42 C3.05800781 43.60230469 3.11601562 45.20460937 3.17578125 46.85546875 C3.22268454 48.96611669 3.26818408 51.07679615 3.3125 53.1875 C3.35439453 54.24259766 3.39628906 55.29769531 3.43945312 56.38476562 C3.56266397 64.19633316 3.56266397 64.19633316 0.73828125 68.23046875 C-1.9945506 69.99647849 -2.977449 70.63107683 -6.125 70.125 C-6.78757813 70.04507813 -7.45015625 69.96515625 -8.1328125 69.8828125 C-10.92987311 68.56035288 -11.63357079 66.73450381 -13 64 C-13.3742218 61.18577576 -13.3742218 61.18577576 -13.37231445 58.07983398 C-13.37854324 56.91189804 -13.38477203 55.7439621 -13.39118958 54.54063416 C-13.38197983 53.28843582 -13.37277008 52.03623749 -13.36328125 50.74609375 C-13.36377975 49.45308853 -13.36427826 48.16008331 -13.36479187 46.82789612 C-13.36470237 44.09681463 -13.3543175 41.3660297 -13.33618164 38.63500977 C-13.31347243 35.13901333 -13.31295673 31.64344889 -13.31969929 28.14739895 C-13.32384818 24.80524812 -13.31186557 21.46322971 -13.30078125 18.12109375 C-13.30169266 16.86687119 -13.30260406 15.61264862 -13.30354309 14.32041931 C-13.29401108 13.15563553 -13.28447906 11.99085175 -13.2746582 10.79077148 C-13.27005081 9.76660629 -13.26544342 8.7424411 -13.26069641 7.6872406 C-12.99425998 4.94083228 -12.46570641 3.31661061 -11 1 C-7.44020669 -1.76872813 -4.1946238 -1.06772242 0 0 Z " fill="#000000" transform="translate(157,121)"/>
<path d="M0 0 C3.1850357 1.76015131 3.83296972 2.49890916 5 6 C5.08907138 7.40592905 5.12510077 8.81561777 5.12597656 10.22436523 C5.13168671 11.4959977 5.13168671 11.4959977 5.13751221 12.7933197 C5.13853943 13.70586014 5.13956665 14.61840057 5.140625 15.55859375 C5.15894715 17.49024622 5.1785169 19.42188719 5.19921875 21.35351562 C5.22823231 24.39969371 5.25000122 27.44512963 5.25048828 30.49145508 C5.25381725 33.43117162 5.28832643 36.36917419 5.328125 39.30859375 C5.3210553 40.21910995 5.3139856 41.12962616 5.30670166 42.06773376 C5.36464065 47.35770491 5.36464065 47.35770491 8.39941406 51.57250977 C12.35708501 53.74491889 15.60491441 53.80417327 20 53 C23.49890004 50.88608123 24.70578686 49.88263941 26 46 C26.09363533 44.62485018 26.13525261 43.24574987 26.1418457 41.86743164 C26.14888016 41.03969742 26.15591461 40.2119632 26.16316223 39.35914612 C26.16732651 38.46847946 26.17149078 37.57781281 26.17578125 36.66015625 C26.1989735 34.77407731 26.22309059 32.88800955 26.24804688 31.00195312 C26.28320428 28.02832482 26.31253329 25.05511 26.32592773 22.08129883 C26.34138499 19.21124348 26.38157196 16.34239375 26.42578125 13.47265625 C26.42387283 12.58401382 26.42196442 11.6953714 26.41999817 10.77980042 C26.54174221 4.64579686 26.54174221 4.64579686 28.81713867 1.43920898 C32.03692286 -0.68366628 34.23383241 -0.53802394 38 0 C40.90717073 2.21863029 41.83981643 3.51944929 43 7 C43.10949009 9.9286298 43.16406224 12.83269976 43.16796875 15.76171875 C43.17296135 17.0586541 43.17296135 17.0586541 43.17805481 18.38179016 C43.18311853 20.21342436 43.18546331 22.04506779 43.18530273 23.87670898 C43.18747811 26.65950058 43.2056088 29.4418885 43.22460938 32.22460938 C43.22754575 34.00781115 43.22952891 35.7910148 43.23046875 37.57421875 C43.23765427 38.39846848 43.24483978 39.2227182 43.25224304 40.07194519 C43.21837671 48.77393035 41.76442067 56.15261678 35.4296875 62.59765625 C27.96899397 69.40595729 21.76419391 70.64396906 11.73046875 70.40625 C3.21097078 69.47847221 -2.22084969 65.50590998 -7.625 59.0625 C-10.19805256 55.20292116 -11.24807515 51.70895333 -11.29052734 47.08959961 C-11.3096669 45.6680381 -11.3096669 45.6680381 -11.32919312 44.21775818 C-11.33141876 43.20617142 -11.33364441 42.19458466 -11.3359375 41.15234375 C-11.3425943 40.10349503 -11.3492511 39.0546463 -11.35610962 37.97401428 C-11.36621769 35.76093293 -11.37092721 33.54782121 -11.37060547 31.3347168 C-11.37498908 27.94594476 -11.41135794 24.55846453 -11.44921875 21.16992188 C-11.45508513 19.01823362 -11.45905572 16.86653918 -11.4609375 14.71484375 C-11.47530853 13.70123276 -11.48967957 12.68762177 -11.50448608 11.64329529 C-11.4590598 4.67013815 -11.4590598 4.67013815 -9.18994141 1.35766602 C-5.97972176 -0.63252701 -3.69837579 -0.46229697 0 0 Z " fill="#000000" transform="translate(147,241)"/>
<path d="M0 0 C4.41801617 3.57142205 6.39215691 7.51246082 8.3046875 12.73046875 C8.59175568 13.47976151 8.87882385 14.22905426 9.17459106 15.00105286 C10.08739998 17.3919471 10.98157782 19.78930306 11.875 22.1875 C12.46619822 23.74721905 13.05863707 25.30646844 13.65234375 26.86523438 C14.54272117 29.20442207 15.4302451 31.54445767 16.30804443 33.88839722 C17.82570961 37.93933605 19.37998191 41.96974394 21.00488281 45.97900391 C21.49228439 47.1922509 21.49228439 47.1922509 21.98953247 48.43000793 C22.60900393 49.96658158 23.23651444 51.49994835 23.87350464 53.02934265 C25.53184132 57.1639345 26.48404037 60.46471604 26 65 C24.5 67.875 24.5 67.875 22 70 C19.19921961 70.66001997 16.80741832 70.60779159 14 70 C9.29174372 66.94599593 9.12360179 63.66293811 7 58 C-3.89 57.505 -3.89 57.505 -15 57 C-15.33 58.65 -15.66 60.3 -16 62 C-17.42369071 65.1568794 -18.54753173 67.54753173 -21 70 C-27.9273743 70.67039106 -27.9273743 70.67039106 -31.5 68.4375 C-33.49791268 65.19089189 -33.51717177 62.67507231 -33 59 C-31.82089388 54.87694261 -30.30109651 50.90036519 -28.765625 46.8984375 C-28.3311908 45.74381012 -27.89675659 44.58918274 -27.44915771 43.39956665 C-26.5299753 40.96510163 -25.60506121 38.532794 -24.67480469 36.10253906 C-23.25443868 32.38661238 -21.85645685 28.66281874 -20.4609375 24.9375 C-19.5638252 22.56980996 -18.6654306 20.2026053 -17.765625 17.8359375 C-17.34879456 16.72439301 -16.93196411 15.61284851 -16.50250244 14.46762085 C-10.51431829 -1.06925271 -10.51431829 -1.06925271 0 0 Z M-4 29 C-4.6708712 30.6232687 -5.33657029 32.24867578 -6 33.875 C-6.37125 34.77992188 -6.7425 35.68484375 -7.125 36.6171875 C-8.11490226 38.88983858 -8.11490226 38.88983858 -8 41 C-5.03 41 -2.06 41 1 41 C0.54965877 39.37276701 0.08944646 37.74826336 -0.375 36.125 C-0.63023437 35.22007812 -0.88546875 34.31515625 -1.1484375 33.3828125 C-1.8604315 30.85430274 -1.8604315 30.85430274 -4 29 Z " fill="#000000" transform="translate(237,241)"/>
<path d="M0 0 C3.97278522 3.38189628 6.6066832 7.27255954 9.1875 11.75 C11.40323891 16.04074981 11.40323891 16.04074981 15 19 C15.24878906 18.30261719 15.49757813 17.60523438 15.75390625 16.88671875 C17.17541914 13.5936215 18.94754467 10.79558015 20.9375 7.8125 C21.62714844 6.76707031 22.31679688 5.72164062 23.02734375 4.64453125 C25.38996446 1.47721597 26.93576577 0.16194869 30.875 -0.4375 C34 0 34 0 36.875 2.125 C39.46178106 5.62476261 39.54447903 6.72987276 39 11 C37.71641322 13.77975147 36.07546385 16.27154901 34.375 18.8125 C33.94832031 19.47314453 33.52164063 20.13378906 33.08203125 20.81445312 C32.65019531 21.48025391 32.21835937 22.14605469 31.7734375 22.83203125 C31.10852295 23.86142822 31.10852295 23.86142822 30.43017578 24.91162109 C29 27 29 27 27.34716797 28.99853516 C21.97236073 35.83557092 22.23937769 42.29903458 22.375 50.75 C22.40055015 53.32801023 22.40905795 55.90626004 22.3984375 58.484375 C22.42429932 60.18158691 22.42429932 60.18158691 22.45068359 61.91308594 C21.90072952 65.67994363 20.64439045 67.31533808 18 70 C16 70.62890625 16 70.62890625 14 70.5625 C13.34 70.56378906 12.68 70.56507813 12 70.56640625 C9.07682359 69.73855355 7.89407086 68.35288305 6 66 C5.64453125 63.18530273 5.64453125 63.18530273 5.8125 59.93359375 C5.84239014 58.73420166 5.87228027 57.53480957 5.90307617 56.29907227 C5.93506104 55.02475342 5.9670459 53.75043457 6 52.4375 C5.99068523 38.77951246 2.90746308 30.35485791 -5.56469727 19.79711914 C-8.98992137 15.50845192 -11.87897799 11.68803439 -12 6 C-9.20268456 0.00575263 -6.49372018 -0.66037832 0 0 Z " fill="#000000" transform="translate(429,241)"/>
<path d="M0 0 C0.82830322 -0.00478363 1.65660645 -0.00956726 2.51000977 -0.01449585 C4.25832014 -0.01789283 6.0066942 -0.00870432 7.75488281 0.01220703 C10.42917664 0.03897918 13.09927402 0.01245635 15.7734375 -0.01953125 C17.47396759 -0.01622711 19.17449506 -0.00982078 20.875 0 C21.67301025 -0.01012115 22.47102051 -0.02024231 23.29321289 -0.03067017 C27.21318114 0.05197277 29.03836398 0.29002791 31.9453125 3.01416016 C33.76082183 6.23823383 33.98075308 8.01650612 33.4375 11.6640625 C31.65765595 14.7999782 30.91441793 15.50508986 27.4375 16.6640625 C25.87631572 16.73147115 24.3124748 16.74920706 22.75 16.7265625 C21.53763672 16.71302734 21.53763672 16.71302734 20.30078125 16.69921875 C19.68589844 16.68761719 19.07101562 16.67601562 18.4375 16.6640625 C18.44638245 17.26683517 18.45526489 17.86960785 18.4644165 18.49064636 C18.55296122 24.76848867 18.61326389 31.04615338 18.65722656 37.32446289 C18.67733265 39.66698411 18.70462166 42.0094552 18.73925781 44.35180664 C18.78781841 47.72034073 18.81047922 51.08821081 18.828125 54.45703125 C18.84877014 55.50304001 18.86941528 56.54904877 18.89068604 57.62675476 C18.89292872 64.90610735 18.89292872 64.90610735 16.53808594 68.82519531 C14.27298349 70.80808137 13.40351762 71.32504355 10.4375 71.2265625 C9.7775 71.22785156 9.1175 71.22914063 8.4375 71.23046875 C5.55344775 70.41369614 4.34292805 68.9463602 2.4375 66.6640625 C1.95648193 64.28485107 1.95648193 64.28485107 1.98339844 61.62011719 C1.98385162 60.11901398 1.98385162 60.11901398 1.98431396 58.58758545 C2.00495911 57.51454163 2.02560425 56.4414978 2.046875 55.3359375 C2.05536469 53.67972382 2.05536469 53.67972382 2.06402588 51.99005127 C2.08641232 48.46428024 2.13661504 44.93952626 2.1875 41.4140625 C2.20756197 39.02345218 2.22581326 36.63282592 2.2421875 34.2421875 C2.28628457 28.38246563 2.35322002 22.52333672 2.4375 16.6640625 C1.82261719 16.68001465 1.20773437 16.6959668 0.57421875 16.71240234 C-0.23402344 16.72480957 -1.04226563 16.7372168 -1.875 16.75 C-2.67550781 16.76595215 -3.47601563 16.7819043 -4.30078125 16.79833984 C-7.3730465 16.61594068 -9.19677652 15.58621283 -11.5625 13.6640625 C-12.98912219 10.81081813 -12.87283868 8.82951701 -12.5625 5.6640625 C-9.44998207 0.09122202 -5.92240723 -0.07511382 0 0 Z " fill="#000000" transform="translate(369.5625,240.3359375)"/>
<path d="M0 0 C2.55495027 1.98089342 3.83292498 3.17361359 4.48101807 6.37921143 C4.47213562 7.25857361 4.46325317 8.13793579 4.45410156 9.04394531 C4.45364838 10.54504852 4.45364838 10.54504852 4.45318604 12.07647705 C4.43254089 13.14952087 4.41189575 14.2225647 4.390625 15.328125 C4.38496521 16.43226746 4.37930542 17.53640991 4.37347412 18.67401123 C4.35108768 22.19978226 4.30088496 25.72453624 4.25 29.25 C4.22993803 31.64061032 4.21168674 34.03123658 4.1953125 36.421875 C4.15121543 42.28159687 4.08427998 48.14072578 4 54 C4.88042969 53.96519531 5.76085937 53.93039062 6.66796875 53.89453125 C7.82941406 53.86746094 8.99085938 53.84039062 10.1875 53.8125 C11.33605469 53.77769531 12.48460937 53.74289062 13.66796875 53.70703125 C17.3044035 54.02676467 19.1105914 54.81841727 22 57 C23.54586876 60.09173752 23.29359521 62.59429552 23 66 C20.86971535 68.85533224 19.6636816 69.87660447 16.13085938 70.53344727 C12.58590181 70.56899163 9.04510889 70.59392172 5.5 70.5625 C4.26378906 70.58634766 3.02757812 70.61019531 1.75390625 70.63476562 C0.56667969 70.63283203 -0.62054688 70.63089844 -1.84375 70.62890625 C-2.92849609 70.62963135 -4.01324219 70.63035645 -5.13085938 70.63110352 C-9.00691234 69.77851699 -9.85473384 68.27757785 -12 65 C-12.50120544 62.19250488 -12.50120544 62.19250488 -12.50170898 59.09570312 C-12.51108994 57.93099487 -12.52047089 56.76628662 -12.53013611 55.56628418 C-12.51328514 53.69269226 -12.51328514 53.69269226 -12.49609375 51.78125 C-12.49754898 50.49061646 -12.49900421 49.19998291 -12.50050354 47.87023926 C-12.50188516 45.14326491 -12.48937054 42.41681803 -12.46655273 39.68994141 C-12.4381678 36.20286739 -12.44090809 32.71666916 -12.45364285 29.22953033 C-12.4622891 25.8925126 -12.44714684 22.55575298 -12.43359375 19.21875 C-12.43652939 17.96968872 -12.43946503 16.72062744 -12.44248962 15.43371582 C-12.42980545 14.26900757 -12.41712128 13.10429932 -12.40405273 11.90429688 C-12.39864975 10.88235229 -12.39324677 9.86040771 -12.38768005 8.80749512 C-11.93714104 5.54478904 -10.93054352 3.64705117 -9 1 C-5.90826248 -0.54586876 -3.40570448 -0.29359521 0 0 Z " fill="#000000" transform="translate(289,241)"/>
<path d="M0 0 C3.1850357 1.76015131 3.83296972 2.49890916 5 6 C5.10327446 7.85972567 5.14852403 9.72290091 5.16113281 11.58544922 C5.17074036 12.73028778 5.1803479 13.87512634 5.19024658 15.05465698 C5.19449646 16.29216705 5.19874634 17.52967712 5.203125 18.8046875 C5.20882507 20.0759549 5.21452515 21.34722229 5.22039795 22.65701294 C5.22985134 25.34868958 5.23674656 28.04025463 5.24023438 30.73193359 C5.24571719 34.17412799 5.26974499 37.61592645 5.29820633 41.05799675 C5.32135463 44.34853023 5.3232837 47.63908399 5.328125 50.9296875 C5.3404718 52.16314911 5.3528186 53.39661072 5.36553955 54.66744995 C5.36253845 55.81859283 5.35953735 56.96973572 5.35644531 58.15576172 C5.36009094 59.16597382 5.36373657 60.17618591 5.36749268 61.2170105 C4.93709392 64.47638218 3.92682283 66.35844249 2 69 C-1.09173752 70.54586876 -3.59429552 70.29359521 -7 70 C-9.82560057 67.88885588 -10.87441171 66.69425182 -11.50793457 63.19213867 C-11.51111694 62.1116626 -11.51429932 61.03118652 -11.51757812 59.91796875 C-11.53649109 58.07585815 -11.53649109 58.07585815 -11.55578613 56.1965332 C-11.54862627 54.86018295 -11.54042227 53.52383795 -11.53125 52.1875 C-11.53394577 50.81274135 -11.53782889 49.43798456 -11.54284668 48.06323242 C-11.54873793 45.18487356 -11.54019176 42.30701191 -11.52148438 39.42871094 C-11.49869389 35.74295984 -11.51181913 32.05837378 -11.53577423 28.37266541 C-11.55024299 25.53470107 -11.54562154 22.69701202 -11.53526306 19.85903931 C-11.5325987 18.50029359 -11.53585541 17.14152272 -11.54518127 15.7828064 C-11.55536241 13.88255301 -11.53708729 11.98221176 -11.51757812 10.08203125 C-11.51439575 9.00155518 -11.51121338 7.9210791 -11.50793457 6.80786133 C-10.3198814 0.24030569 -6.05223929 -0.75652991 0 0 Z " fill="#000000" transform="translate(338,241)"/>
<path d="M0 0 C2.31519629 3.47279444 2.26608379 4.86632186 2.30639648 8.96850586 C2.32238388 10.19665512 2.33837128 11.42480438 2.35484314 12.69017029 C2.36121922 14.03172389 2.36661216 15.37328248 2.37109375 16.71484375 C2.38006097 18.09102985 2.38918284 19.46721495 2.39845276 20.84339905 C2.41493843 23.72757333 2.42264222 26.61163158 2.42553711 29.49584961 C2.43092461 33.18954065 2.46861902 36.88213991 2.51428127 40.57552242 C2.54403915 43.41772943 2.55126033 46.25967292 2.55226326 49.10202217 C2.55646724 50.4636085 2.56890906 51.8251955 2.58978081 53.18662834 C2.61666373 55.09159843 2.60876903 56.99696305 2.59936523 58.90209961 C2.60443588 59.98559189 2.60950653 61.06908417 2.61473083 62.18540955 C2 65 2 65 -0.34605408 67.34986877 C-3.59013655 69.36692637 -5.24508996 69.63913362 -9 69 C-11.84780619 66.76793569 -12.84997666 65.45007001 -14 62 C-14.10312176 60.17089964 -14.14850874 58.33830913 -14.16113281 56.50634766 C-14.17074036 55.38152985 -14.1803479 54.25671204 -14.19024658 53.09780884 C-14.19449646 51.88217255 -14.19874634 50.66653625 -14.203125 49.4140625 C-14.20882507 48.16499115 -14.21452515 46.9159198 -14.22039795 45.6289978 C-14.22985098 42.98439897 -14.23674638 40.3399137 -14.24023438 37.6953125 C-14.245717 34.31364914 -14.26974456 30.93238885 -14.29820633 27.55085182 C-14.32135692 24.31778604 -14.32328384 21.08469957 -14.328125 17.8515625 C-14.3404718 16.63997467 -14.3528186 15.42838684 -14.36553955 14.18008423 C-14.36253845 13.0489621 -14.35953735 11.91783997 -14.35644531 10.75244141 C-14.36009094 9.7599942 -14.36373657 8.767547 -14.36749268 7.74502563 C-13.9331767 4.50085624 -12.91517848 2.63303715 -11 0 C-6.86965809 -2.56750984 -4.31676366 -2.01448971 0 0 Z " fill="#000000" transform="translate(222,121)"/>
</svg>
