<?xml version="1.0" encoding="UTF-8"?>
<svg version="1.1" xmlns="http://www.w3.org/2000/svg" width="512" height="512">
<path d="M0 0 C4.7637918 2.9140626 9.28521371 6.16519018 13.80957031 9.43359375 C17.66125948 12.18798939 21.58497847 14.83680601 25.5 17.5 C27.11493997 18.60364498 28.72952635 19.70780756 30.34375 20.8125 C31.519375 21.616875 31.519375 21.616875 32.71875 22.4375 C36.1490379 24.78701226 39.57481405 27.14305872 43 29.5 C51.18178406 35.12952682 59.37861504 40.73696302 67.57666016 46.34277344 C71.55162332 49.06109401 75.52577548 51.78059969 79.5 54.5 C81.08332934 55.58333917 82.66666268 56.6666725 84.25 57.75 C131.75 90.25 179.25 122.75 226.75 155.25 C227.92598755 156.0546167 227.92598755 156.0546167 229.12573242 156.87548828 C230.70664032 157.95717066 232.28753229 159.03887634 233.8684082 160.12060547 C238.67151968 163.4071272 243.47509867 166.69296311 248.27954102 169.97753906 C249.87576818 171.06963486 251.47131704 172.16272278 253.06616211 173.25683594 C256.83099648 175.83901827 260.60277681 178.40861702 264.3984375 180.9453125 C288.81594823 197.32239508 288.81594823 197.32239508 292.63671875 212.53515625 C294.21365787 223.23460342 292.5570495 233.15210977 286.41015625 242.1484375 C280.45757704 249.96428942 272.51003629 254.9342889 264.44580078 260.34570312 C259.91083714 263.41307322 255.42767218 266.55510374 250.9375 269.6875 C248.96622245 271.06000588 246.99486729 272.4324003 245.0234375 273.8046875 C243.0155869 275.20307029 241.00777457 276.60150804 239 278 C216.4435706 293.71141782 216.4435706 293.71141782 206.13500977 300.77856445 C199.23163235 305.51655581 192.36525053 310.3076076 185.49487305 315.09326172 C179.94678645 318.95595239 174.38928233 322.80387137 168.8125 326.625 C162.8483132 330.71225845 156.91933656 334.84808008 151 339 C144.45248067 343.59253764 137.88650573 348.15531089 131.2890625 352.67578125 C125.34003333 356.75612929 119.41935206 360.87675233 113.5 365 C106.95111243 369.56176372 100.39635633 374.11383918 93.8125 378.625 C87.8483132 382.71225845 81.91933656 386.84808008 76 391 C69.45248067 395.59253764 62.88650573 400.15531089 56.2890625 404.67578125 C50.34003121 408.75613074 44.41953862 412.87701729 38.5 417 C34.66723382 419.66748263 30.83388565 422.33412661 27 425 C25.82993408 425.81380127 25.82993408 425.81380127 24.63623047 426.64404297 C20.10855148 429.78908466 15.56791003 432.91364027 11 436 C10.3723877 436.4242627 9.74477539 436.84852539 9.09814453 437.28564453 C-3.25842478 445.58558853 -14.50725284 451.05027005 -29.80859375 448.5390625 C-40.8878503 445.86746872 -49.33422102 440.25802635 -56 431 C-60.10336318 424.04878029 -62.12193855 418.53218174 -62.13422108 410.44776058 C-62.13657331 409.78797503 -62.13892554 409.12818948 -62.14134905 408.44841042 C-62.14802899 406.22795517 -62.14758113 404.00755857 -62.14717102 401.78709412 C-62.15047028 400.18280847 -62.15419597 398.57852365 -62.1583125 396.97423989 C-62.16833368 392.55789899 -62.17204949 388.14157169 -62.17470181 383.72522104 C-62.17860453 378.96497607 -62.18818292 374.20474188 -62.19691467 369.44450378 C-62.21668037 357.94435124 -62.22674559 346.44419781 -62.23564246 334.94403252 C-62.24002534 329.5286318 -62.24539216 324.11323206 -62.25063133 318.69783211 C-62.26764399 300.69600725 -62.28213809 282.694183 -62.28938007 264.69235134 C-62.29128997 260.02040544 -62.29321031 255.34845955 -62.29516602 250.67651367 C-62.29564976 249.51532133 -62.2961335 248.35412899 -62.2966319 247.157749 C-62.30493193 228.34781208 -62.33026825 209.53793875 -62.36274669 190.7280296 C-62.39581847 171.41706666 -62.41382896 152.10613603 -62.41702431 132.79514462 C-62.41918934 121.95244946 -62.42793686 111.10984705 -62.45348549 100.26717949 C-62.4751941 91.03283671 -62.48324209 81.79860919 -62.47351871 72.56424379 C-62.46897445 67.85401834 -62.47086759 63.14403071 -62.49028015 58.43383789 C-62.50791563 54.11748323 -62.50691102 49.8015398 -62.49138286 45.48518074 C-62.48900737 43.92790935 -62.49332731 42.37060946 -62.50521151 40.8133816 C-62.59581755 28.15147629 -60.80624811 17.57730209 -52 8 C-37.94542581 -6.22952739 -17.71935428 -9.56845131 0 0 Z " fill="#000000" transform="translate(62,34)"/>
<path d="M0 0 C8.90194961 8.24175718 15.14757047 19.92798242 15.82076661 32.11320418 C15.92517982 35.81523442 15.91278074 39.51205208 15.88491821 43.21508789 C15.89068992 44.89996969 15.89863804 46.58484518 15.90855443 48.26970768 C15.92930711 52.86725418 15.91916569 57.46427761 15.90362334 62.06182528 C15.89226605 67.03261529 15.90979419 72.00331813 15.92352295 76.97409058 C15.94571327 86.69904253 15.94097291 96.42380114 15.92645974 106.14876056 C15.91515094 114.05501051 15.91364371 121.96120643 15.91907883 129.86746216 C15.91984499 130.99429478 15.92061116 132.1211274 15.92140054 133.28210646 C15.92299923 135.57150803 15.92462029 137.86090958 15.9262635 140.15031111 C15.94050868 161.59954372 15.92414756 183.04866934 15.89726166 204.49788439 C15.87492403 222.88764055 15.87880451 241.27723888 15.90185547 259.66699219 C15.92863519 281.04139395 15.9391355 302.41570202 15.92379415 323.79011822 C15.92220147 326.07092474 15.92062961 328.35173129 15.91907883 330.63253784 C15.91830745 331.75463073 15.91753607 332.87672362 15.91674132 334.03281933 C15.91243085 341.92620955 15.91969681 349.81954016 15.93147659 357.71292114 C15.94552424 367.33716594 15.94165398 376.96120692 15.91507287 386.58542848 C15.90196524 391.49243904 15.89673014 396.39911024 15.91331863 401.30611801 C15.9282946 405.8042776 15.91990482 410.30178553 15.89343087 414.79988658 C15.88787815 416.42084263 15.89061363 418.04185453 15.90280981 419.66277421 C16.00676274 434.6353055 12.3852982 446.856904 2.25 458.25 C-8.28012405 468.13579828 -21.2736299 472.98410415 -35.74609375 472.53125 C-48.33179562 471.35287479 -61.01167238 466.26131143 -69.30078125 456.40625 C-79.44285728 443.31970028 -81.20494444 430.92953248 -81.13768005 414.63967896 C-81.14185965 412.98112659 -81.14734059 411.32257708 -81.15399987 409.66403282 C-81.16839106 405.13468326 -81.16422964 400.60551664 -81.15683305 396.07615733 C-81.15208796 391.18033206 -81.16462306 386.2845456 -81.17485046 381.38873291 C-81.19201751 371.80840142 -81.19288283 362.22813558 -81.18763756 352.64779271 C-81.18359075 344.85833693 -81.18504548 337.06890051 -81.19038582 329.27944565 C-81.19113424 328.16941843 -81.19188266 327.05939121 -81.19265376 325.9157268 C-81.19418529 323.66047144 -81.19572364 321.40521609 -81.19726873 319.14996074 C-81.21098618 298.0164343 -81.20556137 276.88294491 -81.19408352 255.74941932 C-81.18415178 236.4311557 -81.19709216 217.11298787 -81.22101771 197.79473902 C-81.24542176 177.93996368 -81.25501338 158.08523292 -81.24836498 138.23044288 C-81.24487569 127.09099979 -81.24708572 115.95163036 -81.26461601 104.81219864 C-81.27935428 95.32962473 -81.27995214 85.84717634 -81.2625451 76.36460485 C-81.2540462 71.53042234 -81.25185843 66.69646393 -81.26719666 61.86229324 C-81.28108675 57.42951346 -81.27622538 52.99714883 -81.25695742 48.56439279 C-81.25321032 46.96828265 -81.25608183 45.3721389 -81.26656907 43.77605881 C-81.35129337 29.88428812 -79.58132043 17.49424951 -70.75 6.25 C-70.13125 5.363125 -69.5125 4.47625 -68.875 3.5625 C-50.53402676 -16.39679441 -20.58768018 -16.18585992 0 0 Z " fill="#000000" transform="translate(496.75,25.75)"/>
</svg>
