<?xml version="1.0" encoding="UTF-8"?>
<svg version="1.1" xmlns="http://www.w3.org/2000/svg" width="64" height="64">
<path d="M0 0 C4.74713402 1.39880747 8.24780418 4.00193408 12.2421875 6.8671875 C13.92400706 8.05405469 15.60630759 9.24024058 17.2890625 10.42578125 C18.13275391 11.02374512 18.97644531 11.62170898 19.84570312 12.23779297 C22.24492311 13.90711857 24.67460343 15.50905308 27.1328125 17.08984375 C28.23713623 17.81034912 28.23713623 17.81034912 29.36376953 18.54541016 C30.75175361 19.4481252 32.1483067 20.33783932 33.55419922 21.21240234 C36.5265731 23.17677388 38.2215203 24.67879493 39.734375 27.93359375 C39.31737926 31.40707951 38.91150201 31.81425917 36.3984375 34.0390625 C35.07313133 35.04813225 33.7286441 36.03245101 32.3671875 36.9921875 C31.45646484 37.65637695 31.45646484 37.65637695 30.52734375 38.33398438 C28.66070476 39.66873161 26.77064343 40.96054934 24.8671875 42.2421875 C23.83875732 42.93683105 23.83875732 42.93683105 22.78955078 43.64550781 C21.36335303 44.60849325 19.93642762 45.57040186 18.50878906 46.53125 C16.38553184 47.97967353 14.29262702 49.46433539 12.203125 50.9609375 C10.88290794 51.88815674 9.56259909 52.8152453 8.2421875 53.7421875 C7.63955078 54.1846582 7.03691406 54.62712891 6.41601562 55.08300781 C3.37535249 57.18559402 1.74274584 58.01135753 -2 57.8203125 C-4.6328125 56.9921875 -4.6328125 56.9921875 -5.6328125 55.9921875 C-5.74200389 54.31527402 -5.78188085 52.63379053 -5.79394531 50.95336914 C-5.80355286 49.87877945 -5.8131604 48.80418976 -5.82305908 47.69703674 C-5.82730896 46.52728806 -5.83155884 45.35753937 -5.8359375 44.15234375 C-5.84163757 42.95991562 -5.84733765 41.76748749 -5.85321045 40.53892517 C-5.86267704 38.01106661 -5.86920098 35.48319562 -5.87304688 32.95532227 C-5.88276211 29.0748154 -5.91377469 25.19483574 -5.9453125 21.31445312 C-5.95184107 18.8645865 -5.95709211 16.41471606 -5.9609375 13.96484375 C-5.9732843 12.79711929 -5.9856311 11.62939484 -5.99835205 10.42628479 C-5.9938504 8.80967201 -5.9938504 8.80967201 -5.98925781 7.16040039 C-5.99290344 6.20855362 -5.99654907 5.25670685 -6.00030518 4.27601624 C-5.87903259 3.52235275 -5.75776001 2.76868927 -5.6328125 1.9921875 C-2.6328125 -0.0078125 -2.6328125 -0.0078125 0 0 Z " fill="#FFFFFF" transform="translate(5.6328125,3.0078125)"/>
<path d="M0 0 C2.60105807 2.60105807 2.26238362 3.69727984 2.29052734 7.32006836 C2.3096669 8.98706032 2.3096669 8.98706032 2.32919312 10.68772888 C2.33141876 11.89292679 2.33364441 13.09812469 2.3359375 14.33984375 C2.3425943 15.57287735 2.3492511 16.80591095 2.35610962 18.0763092 C2.36625051 20.688146 2.3709262 23.30000877 2.37060547 25.91186523 C2.37044258 28.59410467 2.38437343 31.27566374 2.41162109 33.95776367 C2.4481464 37.81450442 2.45807311 41.67044766 2.4609375 45.52734375 C2.47530853 46.73051743 2.48967957 47.9336911 2.50448608 49.17332458 C2.49833282 50.28780472 2.49217957 51.40228485 2.48583984 52.55053711 C2.48868988 53.53267685 2.49153992 54.51481659 2.49447632 55.52671814 C2 58 2 58 0.16494751 59.85231018 C-2.88912911 61.47134834 -4.73945125 60.92145943 -8 60 C-10.60105807 57.39894193 -10.26238362 56.30272016 -10.29052734 52.67993164 C-10.30328705 51.56860367 -10.31604675 50.4572757 -10.32919312 49.31227112 C-10.33141876 48.10707321 -10.33364441 46.90187531 -10.3359375 45.66015625 C-10.3459227 43.81060585 -10.3459227 43.81060585 -10.35610962 41.9236908 C-10.36625051 39.311854 -10.3709262 36.69999123 -10.37060547 34.08813477 C-10.37044258 31.40589533 -10.38437343 28.72433626 -10.41162109 26.04223633 C-10.4481464 22.18549558 -10.45807311 18.32955234 -10.4609375 14.47265625 C-10.47530853 13.26948257 -10.48967957 12.0663089 -10.50448608 10.82667542 C-10.49833282 9.71219528 -10.49217957 8.59771515 -10.48583984 7.44946289 C-10.4901149 5.97625328 -10.4901149 5.97625328 -10.49447632 4.47328186 C-10 2 -10 2 -8.16494751 0.14768982 C-5.11087089 -1.47134834 -3.26054875 -0.92145943 0 0 Z " fill="#FFFFFF" transform="translate(62,2)"/>
</svg>
