<?xml version="1.0" encoding="UTF-8"?>
<svg version="1.1" xmlns="http://www.w3.org/2000/svg" width="512" height="512">
<path d="M0 0 C9.62016442 6.910742 16.63360066 16.04327208 19 27.94921875 C20.1659739 38.38832883 19.13683179 47.40017659 15.25 57.1875 C14.92 57.5175 14.59 57.8475 14.25 58.1875 C15.21679688 58.28546875 16.18359375 58.3834375 17.1796875 58.484375 C30.98304138 60.06971069 42.27228782 63.41289577 51.328125 74.80078125 C57.73025986 84.3098345 59.70522046 93.30247816 59.63095093 104.64892578 C59.6356309 105.76114061 59.64031087 106.87335545 59.64513266 108.01927376 C59.65704158 111.72391013 59.6476412 115.42817377 59.63818359 119.1328125 C59.64225111 121.7978421 59.64748603 124.46284654 59.65411377 127.12786865 C59.66741726 133.60162323 59.66458853 140.07527315 59.65587585 146.54903173 C59.64908633 151.81282754 59.64818805 157.07659413 59.6514473 162.34039307 C59.651907 163.0910492 59.65236669 163.84170532 59.65284032 164.61510861 C59.65379955 166.14029996 59.65477219 167.66549131 59.6557581 169.19068265 C59.66430208 183.47495155 59.65449346 197.75916258 59.638357 212.04342198 C59.62495471 224.28613841 59.62728309 236.52876949 59.64111328 248.77148438 C59.65718665 263.0064554 59.6634782 277.24137577 59.65427649 291.4763546 C59.6533209 292.99577204 59.65237778 294.51518948 59.6514473 296.03460693 C59.65098447 296.78208793 59.65052164 297.52956892 59.65004479 298.29970086 C59.64746017 303.554 59.65181449 308.80826689 59.65888596 314.06256104 C59.66732071 320.47034873 59.66497946 326.87802625 59.64904372 333.28580141 C59.64118742 336.55191145 59.63965308 339.81780131 59.64799118 343.08391571 C59.65621164 346.63148367 59.64587823 350.17853876 59.63095093 353.72607422 C59.63764309 354.74846254 59.64433526 355.77085087 59.65123022 356.82422066 C59.55652987 368.45987499 56.09420256 378.68254939 48.24609375 387.41796875 C39.73757839 395.53073921 30.12807996 399.3167364 18.46061707 399.30775452 C17.79072591 399.30860894 17.12083475 399.30946337 16.43064386 399.31034368 C14.19356255 399.31198636 11.95655679 399.30649703 9.71948242 399.30102539 C8.11285402 399.30074323 6.50622549 399.30090182 4.89959717 399.3014679 C0.54258288 399.30175475 -3.81440386 399.2958761 -8.17141175 399.28889394 C-12.72647096 399.28264177 -17.2815308 399.28205512 -21.83659363 399.28086853 C-30.46022124 399.27776072 -39.08383617 399.26955472 -47.7074582 399.25951904 C-57.52600713 399.24834085 -67.34455667 399.24284315 -77.16311038 399.23782361 C-97.35874733 399.22737166 -117.55437286 399.20978284 -137.75 399.1875 C-137.4739732 400.22059233 -137.1979464 401.25368465 -136.91355515 402.31808281 C-136.54853937 403.68526786 -136.18353579 405.05245617 -135.81854248 406.41964722 C-135.63695021 407.09916789 -135.45535793 407.77868856 -135.26826286 408.47880077 C-133.42041561 415.4024022 -131.69349823 422.34953303 -130 429.3125 C-129.68417969 430.58609375 -129.36835938 431.8596875 -129.04296875 433.171875 C-128.74519531 434.39648438 -128.44742187 435.62109375 -128.140625 436.8828125 C-127.87282227 437.97609863 -127.60501953 439.06938477 -127.32910156 440.19580078 C-126.79520811 442.95395018 -126.63450575 445.38903531 -126.75 448.1875 C-125.83299316 448.16655273 -124.91598633 448.14560547 -123.97119141 448.12402344 C-120.52316965 448.05528054 -117.07589065 448.00542848 -113.62744141 447.96777344 C-112.14359952 447.94783019 -110.65983445 447.9206651 -109.17626953 447.88574219 C-97.02611236 447.6071816 -87.5966551 448.73395919 -78.4375 457.39453125 C-72.43665993 463.77042383 -70.46182509 469.91423003 -70.625 478.5625 C-70.64304687 479.80773437 -70.66109375 481.05296875 -70.6796875 482.3359375 C-70.70289063 483.27695312 -70.72609375 484.21796875 -70.75 485.1875 C-69.68563721 485.16655273 -68.62127441 485.14560547 -67.5246582 485.12402344 C-63.56450934 485.05146038 -59.6044189 485.00564149 -55.64379883 484.96777344 C-53.93178414 484.94769495 -52.21983772 484.92042608 -50.50805664 484.88574219 C-48.04295992 484.83705599 -45.5787721 484.81449427 -43.11328125 484.796875 C-42.35163162 484.77622986 -41.58998199 484.75558472 -40.80525208 484.73431396 C-37.06965488 484.73274725 -34.961867 485.05290972 -31.77807617 487.07543945 C-28.94516803 490.02566075 -28.84318853 492.05114928 -28.609375 496 C-28.80797683 499.08936172 -29.76252658 500.84512062 -31.75 503.1875 C-34.94788673 505.31942448 -35.74664971 505.43857537 -39.41557121 505.44476891 C-40.37987804 505.4512178 -41.34418487 505.45766669 -42.33771312 505.464311 C-43.39946573 505.4612138 -44.46121834 505.4581166 -45.55514526 505.45492554 C-46.68124116 505.45945665 -47.80733706 505.46398776 -48.96755707 505.46865618 C-52.7608018 505.48136972 -56.55390423 505.47967533 -60.34716797 505.47802734 C-63.05868068 505.48291898 -65.77018325 505.49075566 -68.48168945 505.49838257 C-75.09439942 505.5150096 -81.70707374 505.52049288 -88.31980287 505.52160732 C-93.69393142 505.522557 -99.06804818 505.52666323 -104.442173 505.53300858 C-119.67228406 505.55062564 -134.90236691 505.55984672 -150.13248824 505.55834763 C-150.95388919 505.55826772 -151.77529014 505.5581878 -152.62158203 505.55810547 C-153.85518446 505.55798283 -153.85518446 505.55798283 -155.11370815 505.55785771 C-168.4441657 505.55704468 -181.77451029 505.57618538 -195.10493515 505.6043822 C-208.78612248 505.63309306 -222.46725468 505.64692349 -236.14847291 505.64519465 C-243.8320207 505.64453012 -251.51545009 505.65004971 -259.19897079 505.67155075 C-265.74066482 505.68973896 -272.28218676 505.69412945 -278.82389508 505.6805319 C-282.16237045 505.67399001 -285.50024522 505.67609041 -288.83873367 505.6912384 C-292.45641648 505.7065932 -296.07322451 505.69744642 -299.69088745 505.68197632 C-300.74817861 505.69226344 -301.80546978 505.70255057 -302.89480007 505.71314943 C-307.36793415 505.67071404 -309.99959264 505.64017747 -313.89041328 503.29306984 C-316.51881977 500.31698199 -316.66274333 498.22366823 -316.890625 494.375 C-316.69202317 491.28563828 -315.73747342 489.52987938 -313.75 487.1875 C-309.96157527 484.66188352 -306.96466671 484.93358427 -302.58203125 484.9921875 C-301.38981209 484.99643234 -301.38981209 484.99643234 -300.17350769 485.00076294 C-297.63635162 485.01195295 -295.09954928 485.03705509 -292.5625 485.0625 C-290.84180198 485.07253134 -289.12109841 485.08165692 -287.40039062 485.08984375 C-283.18345757 485.11188839 -278.96678875 485.14640994 -274.75 485.1875 C-274.77719116 483.75639893 -274.77719116 483.75639893 -274.80493164 482.29638672 C-274.81903076 481.04100098 -274.83312988 479.78561523 -274.84765625 478.4921875 C-274.87484741 476.62796143 -274.87484741 476.62796143 -274.90258789 474.72607422 C-274.57213091 467.06264467 -270.85970031 461.49762362 -265.75 455.98046875 C-258.93550999 449.87138493 -252.32080113 448.05428254 -243.359375 448.08984375 C-242.30245453 448.09196617 -242.30245453 448.09196617 -241.22418213 448.09413147 C-238.98274416 448.09971067 -236.74140757 448.11225927 -234.5 448.125 C-232.97656395 448.13001769 -231.45312632 448.13458013 -229.9296875 448.13867188 C-226.20309228 448.14967326 -222.47655604 448.16692354 -218.75 448.1875 C-218.62689453 446.89062256 -218.50378906 445.59374512 -218.37695312 444.25756836 C-217.8377045 439.42503023 -216.86231215 434.78750889 -215.71875 430.06640625 C-215.52277222 429.24043442 -215.32679443 428.41446259 -215.12487793 427.5634613 C-214.71388773 425.83605265 -214.30032602 424.10925393 -213.88427734 422.38305664 C-213.24614808 419.73400964 -212.61659594 417.08303084 -211.98828125 414.43164062 C-211.58643334 412.74727746 -211.18410694 411.06302836 -210.78125 409.37890625 C-210.59268433 408.5862587 -210.40411865 407.79361115 -210.20983887 406.97694397 C-208.86630804 401.42011609 -208.86630804 401.42011609 -207.75 399.1875 C-208.58084044 399.19026538 -209.41168087 399.19303076 -210.26769829 399.19587994 C-230.50829685 399.26220846 -250.74887661 399.311814 -270.98956108 399.34293652 C-280.77791122 399.35838818 -290.5661887 399.37944514 -300.35449219 399.41381836 C-308.88857642 399.44377283 -317.42260801 399.46308736 -325.95674336 399.46976548 C-330.47314989 399.47366751 -334.98940585 399.48280224 -339.50576401 399.50469017 C-343.76239436 399.52515096 -348.01881304 399.53131453 -352.2754879 399.52682304 C-353.83225469 399.52764397 -355.38902904 399.53355228 -356.9457531 399.54511642 C-370.78029825 399.64278927 -382.37711673 397.70989776 -392.98046875 388.18359375 C-400.3413057 380.46369158 -404.86071597 371.10614724 -404.88422108 360.3578558 C-404.88867892 359.40781734 -404.89313676 358.45777889 -404.89772969 357.47895139 C-404.89754533 356.4433631 -404.89736097 355.40777481 -404.89717102 354.34080505 C-404.90084771 353.23427348 -404.9045244 352.1277419 -404.9083125 350.98767906 C-404.91934342 347.27229894 -404.9231922 343.55694678 -404.92700195 339.84155273 C-404.93326706 337.18051488 -404.93990127 334.51947999 -404.94691467 331.85844421 C-404.96665315 323.86782083 -404.97674204 315.87719623 -404.98564246 307.88655457 C-404.99002972 304.11999228 -404.9953954 300.35343138 -405.00063133 296.58687019 C-405.01764112 284.05971665 -405.03213413 271.53256397 -405.03938007 259.00540066 C-405.04128984 255.75644873 -405.0432102 252.50749682 -405.04516602 249.25854492 C-405.04564976 248.45107294 -405.0461335 247.64360095 -405.0466319 246.81166012 C-405.05492791 233.73825789 -405.08025868 220.66494728 -405.11274669 207.59158503 C-405.14585721 194.15777955 -405.16383244 180.72402056 -405.16702431 167.29017407 C-405.16918574 159.75230001 -405.1778803 152.21455957 -405.20348549 144.67672539 C-405.22524716 138.25569491 -405.23321618 131.83483051 -405.22351871 125.41376733 C-405.21898967 122.14129215 -405.22298338 118.86922893 -405.24028015 115.5967865 C-405.25803019 112.03859872 -405.25087649 108.48126968 -405.23774719 104.92308044 C-405.25420106 103.39312058 -405.25420106 103.39312058 -405.27098733 101.83225244 C-405.16884301 90.30599268 -401.53323456 79.79688794 -393.75 71.1875 C-378.89775311 57.45214208 -361.86245653 58.62320691 -342.84643555 58.73339844 C-340.1154842 58.73676254 -337.38454649 58.73406686 -334.65359497 58.73162842 C-328.79440132 58.72954064 -322.93538715 58.74198913 -317.07623863 58.76457977 C-308.60513874 58.79721968 -300.1341248 58.80751898 -291.66296885 58.81253174 C-277.91596988 58.82126569 -264.16906635 58.84782942 -250.42211914 58.88574219 C-237.0757698 58.92251165 -223.72944647 58.95079919 -210.38305664 58.96777344 C-209.14708309 58.96934978 -209.14708309 58.96934978 -207.88614037 58.97095796 C-203.75207104 58.97617847 -199.61800153 58.98123322 -195.4839319 58.98620558 C-161.23921927 59.02760838 -126.99461997 59.09800472 -92.75 59.1875 C-92.44751846 58.40767761 -92.14503693 57.62785522 -91.83338928 56.82440186 C-90.7501892 54.1879605 -89.49038955 52.10486376 -87.87109375 49.765625 C-87.28787354 48.91685791 -86.70465332 48.06809082 -86.10375977 47.19360352 C-85.47139404 46.28408936 -84.83902832 45.3745752 -84.1875 44.4375 C-82.82998501 42.47317032 -81.47324536 40.50830463 -80.1171875 38.54296875 C-79.40530273 37.51220215 -78.69341797 36.48143555 -77.95996094 35.41943359 C-75.69536971 32.10760651 -73.47193735 28.77137921 -71.2578125 25.42578125 C-70.50890642 24.30086602 -69.75964127 23.17618976 -69.01000977 22.05175781 C-67.57740193 19.89926494 -66.15298807 17.74128904 -64.73803711 15.57714844 C-59.21933636 7.33285799 -53.57517936 1.11251954 -44.5 -3.1875 C-43.50484375 -3.66960937 -42.5096875 -4.15171875 -41.484375 -4.6484375 C-28.15306674 -10.32376587 -11.89420309 -7.41895945 0 0 Z M-43.92407227 22.89672852 C-44.67229248 23.96334717 -45.4205127 25.02996582 -46.19140625 26.12890625 C-46.61500427 26.73216232 -47.03860229 27.3354184 -47.47503662 27.95695496 C-53.02294763 35.92079764 -58.3277823 44.05107046 -63.6456604 52.16931152 C-66.8192069 57.01379713 -70.00182178 61.85232067 -73.18359375 66.69140625 C-73.81992233 67.65964325 -74.45625092 68.62788025 -75.11186218 69.62545776 C-81.22450248 78.9212392 -87.38442628 88.18511401 -93.5625 97.4375 C-94.03820435 98.15007965 -94.51390869 98.8626593 -95.00402832 99.59683228 C-97.58435149 103.46150447 -100.16629425 107.32508846 -102.75 111.1875 C-100.12720235 113.90732857 -97.46021007 116.26717983 -94.4140625 118.5 C-93.59679687 119.10070312 -92.77953125 119.70140625 -91.9375 120.3203125 C-91.091875 120.93648438 -90.24625 121.55265625 -89.375 122.1875 C-88.53710938 122.80367188 -87.69921875 123.41984375 -86.8359375 124.0546875 C-82.53756405 127.20412465 -78.21493278 130.278749 -73.75 133.1875 C-67.75860087 126.30732439 -61.83687578 119.40225812 -56.25 112.1875 C-51.99664762 106.69686485 -47.55988427 101.40071316 -43.01513672 96.1496582 C-39.5801692 92.17529257 -36.26169188 88.1293534 -33.00390625 84.0078125 C-29.97908429 80.22285331 -26.89569862 76.4874572 -23.8125 72.75 C-22.90213989 71.64446777 -22.90213989 71.64446777 -21.97338867 70.51660156 C-19.3336315 67.31227617 -16.69053233 64.11130853 -14.0234375 60.9296875 C-4.19593593 49.24641347 -4.19593593 49.24641347 -1.41015625 34.69140625 C-2.38686368 27.49520551 -6.37265675 21.83326905 -11.90625 17.34375 C-22.78667229 10.52043433 -36.03747264 13.06881206 -43.92407227 22.89672852 Z M-380.25 87.625 C-383.43421183 93.06469522 -384.03926192 98.10868134 -383.99050903 104.3119812 C-383.99307231 105.51411009 -383.99307231 105.51411009 -383.99568737 106.74052441 C-383.99897268 109.41678921 -383.98799441 112.0928014 -383.97705078 114.76904297 C-383.97648646 116.69108576 -383.97680364 118.61312897 -383.97793579 120.53517151 C-383.97850949 125.74749772 -383.96675236 130.95973183 -383.95278788 136.17203665 C-383.9402834 141.62128832 -383.93911024 147.07054211 -383.93673706 152.51980591 C-383.93052147 162.83629772 -383.91410955 173.15274714 -383.89403808 183.46922028 C-383.87168157 195.21520014 -383.86068627 206.96118203 -383.85064721 218.70717788 C-383.82974342 242.86730876 -383.79456586 267.027402 -383.75 291.1875 C-382.33521362 291.19366333 -382.33521362 291.19366333 -380.8918457 291.19995117 C-377.37806324 291.22698859 -373.86601318 291.27612841 -370.3527832 291.34008789 C-368.83498832 291.36322451 -367.31703387 291.37765348 -365.79907227 291.38305664 C-363.6111357 291.39237922 -361.42569313 291.43343151 -359.23828125 291.48046875 C-357.92384033 291.4961792 -356.60939941 291.51188965 -355.25512695 291.52807617 C-350.93656192 292.3405331 -349.45247079 293.79444026 -346.75 297.1875 C-345.91200154 300.2740409 -346.10182092 303.06339362 -346.75 306.1875 C-348.62620613 308.68910818 -349.98891303 309.80695652 -352.75 311.1875 C-355.07273159 311.34270557 -357.39959313 311.43769167 -359.7265625 311.50390625 C-360.41181 311.52468735 -361.0970575 311.54546844 -361.80307007 311.56687927 C-363.99361069 311.63230185 -366.18427189 311.69122554 -368.375 311.75 C-369.8593875 311.79319218 -371.34376278 311.8368067 -372.828125 311.88085938 C-376.46862084 311.98797553 -380.10925251 312.08926362 -383.75 312.1875 C-383.85176424 319.3040744 -383.92161829 326.4204598 -383.96972656 333.53759766 C-383.98979065 335.9566143 -384.01704843 338.37558276 -384.05175781 340.79443359 C-384.10050341 344.27974368 -384.12302164 347.76441016 -384.140625 351.25 C-384.16127014 352.32427246 -384.18191528 353.39854492 -384.20318604 354.50537109 C-384.20540806 362.01049496 -383.20584035 367.69186111 -377.71484375 373.24609375 C-377.04582031 373.70113281 -376.37679687 374.15617187 -375.6875 374.625 C-375.01589844 375.09808594 -374.34429687 375.57117188 -373.65234375 376.05859375 C-369.83559719 378.32356245 -366.62668802 378.31516405 -362.28119373 378.32172108 C-361.61828649 378.32407331 -360.95537924 378.32642554 -360.2723839 378.32884905 C-358.03531749 378.33554353 -355.79830911 378.33508069 -353.56123352 378.33467102 C-351.94742325 378.33796937 -350.33361381 378.34169487 -348.71980542 378.3458125 C-344.2726102 378.35584395 -339.82542847 378.35955113 -335.37822354 378.36220181 C-330.58666161 378.36610146 -325.7951104 378.37568002 -321.0035553 378.38441467 C-309.42587765 378.40418848 -297.84819911 378.41424637 -286.2705088 378.42314246 C-280.82084854 378.42752378 -275.37118926 378.43289099 -269.92152977 378.43813133 C-251.80993635 378.45514438 -233.69834354 378.46963918 -215.58674335 378.47688007 C-210.88538423 378.47879003 -206.18402512 378.48071035 -201.48266602 378.48266602 C-200.31414001 378.48314976 -199.14561401 378.4836335 -197.94167813 378.4841319 C-179.00678715 378.49243451 -160.07195931 378.51777501 -141.13709591 378.55024669 C-121.70526778 378.58329946 -102.27347176 378.60132721 -82.84161538 378.60452431 C-71.92801925 378.60669104 -61.01451519 378.61546352 -50.10094643 378.64098549 C-40.80757138 378.66266811 -31.51431074 378.67075491 -22.22091327 378.66101871 C-17.47866288 378.65646696 -12.73664869 378.65841099 -7.99443054 378.67778015 C-3.65228756 378.69536219 0.68944604 378.69445455 5.03159306 378.67888286 C6.60162684 378.67649923 8.17168859 378.68086939 9.74167951 378.69271151 C17.77846161 378.74957182 24.37114916 378.78127009 31.25 374.1875 C33.32786038 372.26398216 33.32786038 372.26398216 34.6875 370.125 C35.16058594 369.45339844 35.63367188 368.78179687 36.12109375 368.08984375 C38.11819137 364.72449239 38.37296741 361.98930062 38.36352539 358.1652832 C38.36341209 356.63403557 38.36341209 356.63403557 38.36329651 355.07185364 C38.35813522 353.97177475 38.35297394 352.87169586 38.34765625 351.73828125 C38.3462413 350.6105278 38.34482635 349.48277435 38.34336853 348.32084656 C38.3377647 344.71387088 38.32521153 341.10695696 38.3125 337.5 C38.30748549 335.05664152 38.3029225 332.61328207 38.29882812 330.16992188 C38.28779403 324.17576013 38.27105215 318.18163448 38.25 312.1875 C37.58113622 312.18652319 36.91227244 312.18554638 36.22314006 312.18453997 C-3.40009905 312.12629538 -43.02328192 312.05251945 -82.64645303 311.95851372 C-87.40175293 311.94724526 -92.15705312 311.93610686 -96.91235352 311.92504883 C-98.33242351 311.9217433 -98.33242351 311.9217433 -99.78118179 311.918371 C-115.11962942 311.88297769 -130.458077 311.85812504 -145.79655036 311.83715298 C-161.5297699 311.81540712 -177.26293634 311.78236828 -192.99611074 311.73879844 C-202.7079752 311.71226077 -212.41977348 311.69458099 -222.13167242 311.68815396 C-228.78726325 311.68290654 -235.44277073 311.66671137 -242.09831693 311.64183434 C-245.94090764 311.62779712 -249.78334907 311.61865678 -253.62596703 311.62249184 C-257.78886453 311.62652065 -261.95133674 311.60753216 -266.11418152 311.58622742 C-267.33304792 311.59107499 -268.55191432 311.59592257 -269.80771607 311.60091704 C-270.92190771 311.5914605 -272.03609935 311.58200396 -273.18405437 311.57226086 C-274.14512653 311.57036225 -275.10619869 311.56846365 -276.09639424 311.56650752 C-279.27043932 311.11316702 -281.1654599 310.05586121 -283.75 308.1875 C-284.88624119 305.91501762 -285.01446843 304.40447236 -285.125 301.875 C-285.19847656 300.73611328 -285.19847656 300.73611328 -285.2734375 299.57421875 C-284.67062098 296.82555537 -283.66066132 295.19646009 -281.61975825 293.25924361 C-277.30937374 290.7885354 -271.89601712 291.50619227 -267.07621765 291.54826355 C-265.12195499 291.53573004 -265.12195499 291.53573004 -263.12821227 291.52294332 C-259.51360248 291.50042988 -255.89963082 291.50900502 -252.28500116 291.5226289 C-248.38656403 291.53188588 -244.48825924 291.51235196 -240.58985901 291.49630737 C-233.83620592 291.47245542 -227.08273535 291.46686161 -220.32904625 291.47365379 C-210.56437721 291.48344775 -200.79991075 291.4657292 -191.03527448 291.44128648 C-175.19302684 291.40237793 -159.35083706 291.38573282 -143.50854492 291.38305664 C-128.11886628 291.38040931 -112.72925528 291.36729658 -97.33959961 291.34008789 C-95.91677314 291.33757782 -95.91677314 291.33757782 -94.46520271 291.33501705 C-89.7066209 291.3265576 -84.9480395 291.31789219 -80.18945825 291.30912435 C-40.70964971 291.23664809 -1.22987035 291.20028975 38.25 291.1875 C38.36688153 265.93542292 38.45501194 240.68338647 38.50906086 215.43109322 C38.53482549 203.70559768 38.56994294 191.98027037 38.62719727 180.25488281 C38.67708528 170.03319111 38.70930367 159.81162127 38.72044247 149.58981121 C38.72695203 144.17905583 38.74221541 138.76864902 38.77865028 133.35800552 C38.81269484 128.26082716 38.8230358 123.16413956 38.81553841 118.06685829 C38.81690917 116.20046506 38.82679102 114.33405469 38.84602737 112.46776009 C39.22445967 98.49329766 39.22445967 98.49329766 33.25 86.1875 C23.58770823 78.33374345 11.16141961 78.54136517 -0.77832031 79.56982422 C-5.35867598 80.52186988 -7.55903346 82.49771548 -10.125 86.3125 C-11.33228968 88.25154798 -12.46911982 90.21019927 -13.56933594 92.21191406 C-15.56143941 95.54526834 -18.15805179 98.31309067 -20.75 101.1875 C-24.72744588 105.74900173 -28.54423996 110.40311816 -32.25 115.1875 C-36.43067172 120.58502429 -40.79390399 125.7830501 -45.26953125 130.9375 C-48.71942347 134.93117368 -52.01859246 139.01561252 -55.25 143.1875 C-59.49990358 148.67352938 -63.93215871 153.96605144 -68.47387695 159.2121582 C-72.02084565 163.31524154 -75.45133708 167.49252697 -78.8125 171.75 C-80.98766235 174.48649457 -83.21118866 177.17999154 -85.4375 179.875 C-86.18 180.79539062 -86.9225 181.71578125 -87.6875 182.6640625 C-88.91912493 184.17093694 -90.18093148 185.6549837 -91.5 187.0859375 C-93.45780995 189.35231532 -94.82025284 191.20026267 -94.6015625 194.2734375 C-94.22419191 195.91964834 -93.81519703 197.55878189 -93.3828125 199.19140625 C-90.24815846 214.03263865 -93.72715526 228.55666239 -101.75 241.1875 C-108.08381297 250.33634096 -118.15970641 255.94099808 -128.78515625 258.71972656 C-133.02692342 259.38896453 -137.22353185 259.36385169 -141.51171875 259.3984375 C-143.4550864 259.42651663 -145.39844566 259.45518116 -147.34179688 259.484375 C-150.38500638 259.52550276 -153.42806111 259.56241797 -156.47143555 259.58886719 C-159.42268674 259.61669786 -162.37324166 259.66257441 -165.32421875 259.7109375 C-166.66694099 259.7158168 -166.66694099 259.7158168 -168.03678894 259.72079468 C-175.99143735 259.8733149 -183.91662158 261.29519418 -190.4375 266.125 C-191.17226562 266.640625 -191.90703125 267.15625 -192.6640625 267.6875 C-193.35242188 268.1825 -194.04078125 268.6775 -194.75 269.1875 C-198.41995471 271.8111272 -201.38772075 273.52825939 -206 273.125 C-210.55088515 271.98727871 -210.55088515 271.98727871 -212.75 269.1875 C-213.51782227 267.14135742 -213.51782227 267.14135742 -214.06640625 264.79296875 C-214.27241455 263.92784668 -214.47842285 263.06272461 -214.69067383 262.17138672 C-214.89587646 261.2485791 -215.1010791 260.32577148 -215.3125 259.375 C-215.52865967 258.41867676 -215.74481934 257.46235352 -215.9675293 256.47705078 C-216.57937985 253.71732319 -217.1689443 250.95385338 -217.75 248.1875 C-218.00265625 247.01574219 -218.2553125 245.84398437 -218.515625 244.63671875 C-222.55483056 221.9306132 -221.58991064 196.17664162 -208.8125 176.375 C-207.80546029 174.96918266 -206.78542252 173.5725457 -205.75 172.1875 C-205.14478516 171.29998047 -205.14478516 171.29998047 -204.52734375 170.39453125 C-196.48220519 159.64307697 -181.60044715 153.02317029 -168.70947266 150.84228516 C-165.47207059 150.38526718 -162.25019228 150.02945244 -158.9921875 149.7421875 C-154.69181944 149.00646188 -152.06973069 147.83713585 -149.28613281 144.35769653 C-147.60339377 141.94147036 -145.99881698 139.48692742 -144.41015625 137.0078125 C-143.80674911 136.08523651 -143.20334198 135.16266052 -142.58164978 134.21212769 C-140.64857404 131.25197663 -138.73021119 128.2826225 -136.8125 125.3125 C-135.55763883 123.38346487 -134.30178825 121.45507298 -133.04492188 119.52734375 C-131.16630409 116.64571781 -129.28879871 113.76342618 -127.41641235 110.87774658 C-122.33866044 103.05738149 -117.17495877 95.29659418 -111.96168518 87.56594849 C-111.40770554 86.74093842 -110.85372589 85.91592834 -110.28295898 85.06591797 C-109.79230453 84.33855438 -109.30165009 83.6111908 -108.79612732 82.86178589 C-107.66168514 81.37519518 -107.66168514 81.37519518 -107.75 80.1875 C-140.70221168 80.07298996 -173.65437164 79.98491836 -206.60673698 79.93217335 C-210.49938097 79.92592002 -214.39202456 79.91944839 -218.28466797 79.9128418 C-219.44707307 79.91087447 -219.44707307 79.91087447 -220.63296111 79.9088674 C-233.1713278 79.88712641 -245.70957955 79.84771214 -258.24787812 79.80173602 C-271.11876048 79.75493491 -283.98958275 79.72719689 -296.86054671 79.71705753 C-304.7990561 79.71020591 -312.7372406 79.68858662 -320.67564996 79.64791767 C-326.76868182 79.61829775 -332.86143577 79.61523505 -338.95454788 79.62196159 C-341.44983162 79.62058761 -343.94512781 79.61066278 -346.44033813 79.59147263 C-349.85295706 79.56651729 -353.26419711 79.57260534 -356.67684937 79.58622742 C-357.65936751 79.57166321 -358.64188565 79.557099 -359.65417707 79.54209346 C-367.68454693 79.6284643 -374.42647245 81.94706064 -380.25 87.625 Z M-114.75 129.1875 C-115.70924578 130.46363267 -116.62203551 131.77471828 -117.515625 133.09765625 C-118.07636719 133.92330078 -118.63710938 134.74894531 -119.21484375 135.59960938 C-120.09849609 136.91155273 -120.09849609 136.91155273 -121 138.25 C-122.15035587 139.94968311 -123.30138752 141.64890905 -124.453125 143.34765625 C-125.28553711 144.57572998 -125.28553711 144.57572998 -126.13476562 145.82861328 C-128.29419675 148.98224441 -130.51300592 152.08850632 -132.75 155.1875 C-131.3375609 158.57359712 -129.77042064 160.20573492 -126.79296875 162.31640625 C-125.61831055 163.15655273 -125.61831055 163.15655273 -124.41992188 164.01367188 C-123.60072266 164.58666016 -122.78152344 165.15964844 -121.9375 165.75 C-121.12990234 166.32685547 -120.32230469 166.90371094 -119.49023438 167.49804688 C-115.66061317 170.21736021 -111.83469578 172.85930626 -107.75 175.1875 C-107.20472656 174.52105469 -106.65945313 173.85460937 -106.09765625 173.16796875 C-105.34355469 172.24628906 -104.58945312 171.32460937 -103.8125 170.375 C-102.59046875 168.87839844 -102.59046875 168.87839844 -101.34375 167.3515625 C-99.64551581 165.27494531 -97.93568983 163.20982513 -96.21875 161.1484375 C-95.4246875 160.19195312 -94.630625 159.23546875 -93.8125 158.25 C-93.08160156 157.37472656 -92.35070312 156.49945313 -91.59765625 155.59765625 C-89.99325776 153.50481509 -88.81386839 151.58816637 -87.75 149.1875 C-93.83435935 144.2147063 -100.03542292 139.41353882 -106.3125 134.6875 C-107.02728516 134.14706055 -107.74207031 133.60662109 -108.47851562 133.04980469 C-109.14689453 132.54868164 -109.81527344 132.04755859 -110.50390625 131.53125 C-111.40604858 130.85352539 -111.40604858 130.85352539 -112.32641602 130.16210938 C-113.59998509 129.09334797 -113.59998509 129.09334797 -114.75 129.1875 Z M-187.75 182.1875 C-197.64685801 193.54754852 -199.94692981 206.70455086 -199.9375 221.3125 C-199.93814453 222.33480713 -199.93878906 223.35711426 -199.93945312 224.41040039 C-199.88964182 231.52832225 -199.42222583 238.24477669 -197.75 245.1875 C-196.71552734 244.89746094 -196.71552734 244.89746094 -195.66015625 244.6015625 C-194.25056641 244.21097656 -194.25056641 244.21097656 -192.8125 243.8125 C-191.89597656 243.55726563 -190.97945312 243.30203125 -190.03515625 243.0390625 C-188.95105469 242.75804687 -187.86695313 242.47703125 -186.75 242.1875 C-185.79075623 241.93514336 -185.79075623 241.93514336 -184.81213379 241.6776886 C-179.06289241 240.27105081 -173.64998044 239.89344506 -167.74609375 239.87890625 C-165.85221027 239.85376085 -163.95833013 239.82836263 -162.06445312 239.80273438 C-159.11988086 239.77398407 -156.17536622 239.74992286 -153.23071289 239.73120117 C-150.36055534 239.70945212 -147.49102981 239.67002919 -144.62109375 239.62890625 C-143.75004501 239.62879044 -142.87899628 239.62867462 -141.98155212 239.6285553 C-133.93688727 239.49946367 -127.0672552 237.40610212 -120.75 232.1875 C-115.47110764 225.56994116 -112.45837792 219.40746053 -112.5 210.8125 C-112.49484375 209.75289062 -112.4896875 208.69328125 -112.484375 207.6015625 C-112.84474439 200.43217364 -112.84474439 200.43217364 -116.40527344 194.45019531 C-118.62025969 192.67967388 -120.89533486 191.07997313 -123.25 189.5 C-124.97019686 188.2957797 -126.69024508 187.09134704 -128.41015625 185.88671875 C-129.29203613 185.28005371 -130.17391602 184.67338867 -131.08251953 184.04833984 C-133.71682569 182.21064247 -136.29835047 180.31725556 -138.87109375 178.39453125 C-139.680625 177.79278076 -140.49015625 177.19103027 -141.32421875 176.57104492 C-142.87330008 175.41835558 -144.41900981 174.26111819 -145.9609375 173.09887695 C-146.66347656 172.58413818 -147.36601562 172.06939941 -148.08984375 171.5390625 C-148.70206787 171.08354004 -149.31429199 170.62801758 -149.94506836 170.15869141 C-160.33625859 164.56743552 -180.25517219 174.82217245 -187.75 182.1875 Z M-185.75 399.1875 C-187.86229387 403.90229018 -188.95563436 408.78514088 -190.1328125 413.79296875 C-190.35194305 414.71338455 -190.57107361 415.63380035 -190.79684448 416.58210754 C-191.25750554 418.52069456 -191.71629913 420.45972618 -192.17333984 422.39916992 C-192.87522683 425.375962 -193.58363586 428.35114627 -194.29296875 431.32617188 C-194.73996861 433.21084616 -195.1865962 435.09560879 -195.6328125 436.98046875 C-195.84527618 437.87315964 -196.05773987 438.76585052 -196.27664185 439.68559265 C-196.47039398 440.51017471 -196.66414612 441.33475677 -196.86376953 442.18432617 C-197.12119431 443.27423103 -197.12119431 443.27423103 -197.38381958 444.38615417 C-197.81640243 446.2077878 -197.81640243 446.2077878 -197.75 448.1875 C-181.25 448.1875 -164.75 448.1875 -147.75 448.1875 C-150.2753608 436.82337639 -152.80740407 425.46478178 -155.4375 414.125 C-155.59130127 413.4539624 -155.74510254 412.7829248 -155.90356445 412.09155273 C-156.35279613 410.13184727 -156.80716112 408.17332071 -157.26171875 406.21484375 C-157.52428467 405.07781006 -157.78685059 403.94077637 -158.05737305 402.76928711 C-158.49604777 400.27487311 -158.49604777 400.27487311 -159.75 399.1875 C-161.67667507 399.10001793 -163.60651861 399.08052666 -165.53515625 399.08984375 C-166.70498047 399.09306641 -167.87480469 399.09628906 -169.08007812 399.09960938 C-170.92762695 399.11217773 -170.92762695 399.11217773 -172.8125 399.125 C-174.04806641 399.12951172 -175.28363281 399.13402344 -176.55664062 399.13867188 C-179.62114117 399.15050392 -182.68554721 399.16698827 -185.75 399.1875 Z M-252.75 473.1875 C-254.49535599 476.30553399 -254.49535599 476.30553399 -253.75 485.1875 C-200.29 485.1875 -146.83 485.1875 -91.75 485.1875 C-90.87974357 476.01043624 -90.87974357 476.01043624 -93.625 472.125 C-97.05570279 468.99700628 -99.08349462 469.05811072 -103.65144348 469.04032898 C-105.53791344 469.02959602 -105.53791344 469.02959602 -107.4624939 469.01864624 C-108.86407446 469.01580585 -110.26565529 469.01309414 -111.66723633 469.01049805 C-113.1372341 469.00423442 -114.60723029 468.99758771 -116.07722473 468.99058533 C-120.07730893 468.9731667 -124.07738117 468.96262129 -128.07749391 468.9543798 C-130.57578569 468.94923162 -133.07407375 468.94315582 -135.5723629 468.93686867 C-143.38651627 468.91781445 -151.20066018 468.90358363 -159.01483232 468.8952567 C-168.03952376 468.88548144 -177.06397012 468.85915552 -186.08857518 468.81875581 C-193.06103724 468.78861222 -200.03342896 468.77378952 -207.00595492 468.77047569 C-211.17177774 468.76812324 -215.3373388 468.75913784 -219.50309181 468.73401451 C-223.42246632 468.7107592 -227.34140625 468.70649007 -231.26083183 468.71677589 C-232.69876169 468.71727199 -234.13671275 468.71092984 -235.57457733 468.69721985 C-237.5388407 468.67953974 -239.5032922 468.68897975 -241.46760559 468.69975281 C-242.56655057 468.69736445 -243.66549555 468.6949761 -244.79774189 468.69251537 C-248.4482089 469.30456384 -250.11321506 470.64226101 -252.75 473.1875 Z " fill="#000000" transform="translate(428.75,6.8125)"/>
<path d="M0 0 C3.67552256 1.99756661 4.77375004 3.50036467 6.5 7.3125 C7.12392742 11.91396471 6.36380554 14.03490684 4 18 C1.29013532 20.27042717 -0.45183064 20.91835776 -3.9375 21.4375 C-7.8124426 20.88393677 -9.95425348 19.40826469 -13 17 C-14.72869779 13.54260443 -14.48966895 9.78024432 -14 6 C-10.36346592 0.18154547 -6.71004518 -0.90154158 0 0 Z " fill="#000000" transform="translate(117,298)"/>
</svg>
